<svg width="16" height="16" viewBox="0 0 16 16" fill="none" xmlns="http://www.w3.org/2000/svg">
<path d="M8.66675 5.66667H6.00008C4.71141 5.66667 3.66675 4.622 3.66675 3.33333C3.66675 2.04467 4.71141 1 6.00008 1H8.66675V5.66667Z" fill="#4F545A"/>
<path d="M8.33341 10.3334H6.00008C4.71141 10.3334 3.66675 9.28875 3.66675 8.00008C3.66675 6.71141 4.71141 5.66675 6.00008 5.66675H8.33341V10.3334Z" fill="#7C4DFF"/>
<path d="M6.00008 14.9999C4.71141 14.9999 3.66675 13.9553 3.66675 12.6666C3.66675 11.3779 4.71141 10.3333 6.00008 10.3333H8.33341V12.6666C8.33341 13.9553 7.28875 14.9999 6.00008 14.9999Z" fill="#66BB6A"/>
<path d="M10.6666 5.66667H8.33325V1H10.6666C11.9553 1 12.9999 2.04467 12.9999 3.33333C12.9999 4.622 11.9553 5.66667 10.6666 5.66667Z" fill="#FF7043"/>
<path d="M10.6666 10.3334C11.9552 10.3334 12.9999 9.28875 12.9999 8.00008C12.9999 6.71142 11.9552 5.66675 10.6666 5.66675C9.37792 5.66675 8.33325 6.71142 8.33325 8.00008C8.33325 9.28875 9.37792 10.3334 10.6666 10.3334Z" fill="#29B6F6"/>
</svg>
