<svg width="16" height="16" viewBox="0 0 16 16" fill="none" xmlns="http://www.w3.org/2000/svg">
<path d="M14.0667 7.36675L8.63341 1.93341C8.46675 1.76675 8.23341 1.66675 8.00008 1.66675C7.76675 1.66675 7.53341 1.76675 7.36675 1.93341L6.20008 3.10008L7.56675 4.46675C7.70008 4.40008 7.83341 4.36675 8.00008 4.36675C8.56675 4.36675 9.00008 4.80008 9.00008 5.36675C9.00008 5.53341 8.96675 5.66675 8.90008 5.80008L10.2334 7.13341C10.3667 7.06675 10.5001 7.03341 10.6667 7.03341C11.2334 7.03341 11.6667 7.46675 11.6667 8.03341C11.6667 8.60008 11.2334 9.03341 10.6667 9.03341C10.1001 9.03341 9.66675 8.60008 9.66675 8.03341C9.66675 7.86675 9.70008 7.73341 9.76675 7.60008L8.43341 6.26675C8.40008 6.26675 8.36675 6.30008 8.33341 6.30008V9.76675C8.73341 9.90008 9.00008 10.2667 9.00008 10.7001C9.00008 11.2667 8.56675 11.7001 8.00008 11.7001C7.43341 11.7001 7.00008 11.2667 7.00008 10.7001C7.00008 10.2667 7.26675 9.90008 7.66675 9.76675V6.26675C7.26675 6.13341 7.00008 5.76675 7.00008 5.33341C7.00008 5.16675 7.03341 5.03341 7.10008 4.90008L5.73341 3.53341L1.93341 7.36675C1.76675 7.53341 1.66675 7.76675 1.66675 8.00008C1.66675 8.23341 1.76675 8.46675 1.93341 8.63341L7.36675 14.0667C7.53341 14.2334 7.76675 14.3334 8.00008 14.3334C8.23341 14.3334 8.46675 14.2334 8.63341 14.0667L14.0667 8.63341C14.2334 8.46675 14.3334 8.23341 14.3334 8.00008C14.3334 7.76675 14.2334 7.53341 14.0667 7.36675Z" fill="#F4511E"/>
</svg>
