<svg width="16" height="16" viewBox="0 0 16 16" fill="none" xmlns="http://www.w3.org/2000/svg">
<path d="M10.1311 11.5179L9.76389 12.1586L9.6441 14.2473C9.6441 14.4791 8.90707 14.6666 8.00076 14.6666C7.09445 14.6666 6.35743 14.4791 6.35743 14.2473L6.20638 12.1794L5.81833 11.5179C6.89132 11.9685 9.09979 11.9529 10.1311 11.5179V11.5179ZM5.02661 4.92117L5.3808 8.18961C5.53446 7.66874 5.9225 6.96557 6.42254 6.75202C6.58661 6.6817 6.75329 6.6817 6.90955 6.77546C7.04497 6.85359 7.15956 7.01766 7.17258 7.08277C7.20384 7.25205 7.1205 7.31976 7.05539 7.31976C6.97726 7.31976 6.91736 7.19996 6.87829 7.12965C6.77152 6.93953 6.61005 6.93172 6.43816 7.05673C6.25846 7.18694 6.1022 7.40571 5.99282 7.59582C5.86 7.825 5.74801 8.07762 5.6803 8.33024C5.64124 8.47609 5.60478 8.71048 5.66468 8.84851C5.69072 8.9058 5.72978 8.94226 5.79229 8.94226C5.9225 8.94226 6.11262 8.77038 6.20377 8.67922C6.32097 8.56203 6.47202 8.37973 6.52931 8.26253L6.66474 7.85886C6.73245 7.68177 6.92257 7.71302 6.92257 7.85886C6.92257 8.1245 6.82621 8.21305 6.66213 8.76256C6.51108 9.27041 6.46421 9.43448 6.46421 9.43448C6.44598 9.5074 6.37566 9.62981 6.30013 9.62981C6.26888 9.62981 6.24544 9.61939 6.23242 9.59855C6.20638 9.56209 6.20898 9.46052 6.21159 9.43448C6.21679 9.35114 6.37566 8.85632 6.4017 8.77819C6.34961 8.83548 6.29492 8.89278 6.23502 8.95008C6.09439 9.0829 5.86781 9.25739 5.67509 9.25739C5.58655 9.25739 5.52925 9.23395 5.47456 9.19488L5.67249 11.2679C5.72457 11.3981 6.69339 11.7133 7.96951 11.7133C9.24824 11.7133 10.217 11.3955 10.2665 11.2679L10.5504 8.80423C10.402 8.93966 10.2301 9.10634 10.04 9.18967C9.89932 9.24957 9.5868 9.28864 9.5868 9.04123C9.5868 8.9058 9.82379 8.65579 9.96182 8.4813C9.99828 8.43702 10.0842 8.32764 10.0842 8.27034C10.0842 8.19482 9.92797 8.21305 9.77952 8.33545C9.69618 8.40577 9.61805 8.49953 9.55294 8.58807C9.44096 8.74433 9.38106 8.87976 9.33158 8.99174C9.17011 9.36156 9.2248 9.21572 9.09458 9.5647C8.96436 9.91107 8.9852 9.87201 8.95916 9.9293C8.93572 9.97879 8.90186 10.0205 8.85498 10.0465C8.8055 10.0725 8.73779 10.0699 8.69612 10.0387C8.67268 10.0231 8.66226 9.9892 8.66226 9.94233C8.66226 9.91889 8.66487 9.89545 8.67007 9.87201C8.70914 9.71314 8.87321 9.40063 9.06072 8.97872C9.10239 8.88236 9.08677 8.91101 9.08156 8.91882C8.92009 9.07508 8.79769 9.15061 8.70654 9.19228C8.55548 9.25999 8.36797 9.25999 8.32891 9.0855C8.3263 9.07508 8.3263 9.06467 8.3237 9.05425C8.01639 9.29385 7.69085 9.35896 7.80283 8.8433C7.68303 9.05685 7.47469 9.23134 7.21946 9.23134C7.11268 9.23134 7.03455 9.19488 6.99549 9.09852C6.93559 8.95528 7.02935 8.71048 7.11529 8.47869C7.15956 8.3615 7.21946 8.22086 7.3002 8.05679C7.34187 7.96824 7.40958 7.91616 7.49813 7.93959C7.51375 7.9448 7.52677 7.95001 7.53979 7.95782C7.60751 8.0047 7.58146 8.07502 7.54761 8.14534C7.44864 8.34066 7.3627 8.4839 7.3054 8.68704C7.28197 8.77298 7.25332 8.92143 7.34447 8.92143C7.40697 8.92143 7.46687 8.90059 7.52417 8.85892C7.64397 8.77038 7.74033 8.63756 7.81325 8.50734C7.86534 8.41358 7.92784 8.29118 7.95909 8.18701C7.97211 8.14273 7.98774 8.10106 8.00597 8.062C8.03462 7.99689 8.07368 7.92918 8.1414 7.92918C8.17525 7.92918 8.2039 7.9422 8.22473 7.96824C8.26901 8.02554 8.25859 8.08544 8.23515 8.14794C8.18306 8.29378 8.11275 8.424 8.05545 8.58286C8.0216 8.67402 7.98514 8.79121 7.98514 8.88757C7.98514 8.97612 8.0815 8.95528 8.16223 8.91882C8.22473 8.89018 8.28724 8.8459 8.33932 8.80163C8.37058 8.67402 8.36276 8.70266 9.02687 7.02547C9.06072 6.93953 9.12323 6.90307 9.18573 6.90307C9.21698 6.90307 9.24303 6.91349 9.26907 6.93172C9.31335 6.96557 9.31335 7.03849 9.29511 7.09319C9.27688 7.14267 9.27949 7.12704 9.17792 7.36664C9.04249 7.68177 8.95395 7.90834 8.83415 8.19742C8.78467 8.31722 8.63361 8.68964 8.60757 8.77819C8.59195 8.83548 8.57371 8.92924 8.63361 8.92924C8.77425 8.92924 9.13625 8.58807 9.23522 8.4865C9.24042 8.47869 9.24824 8.47609 9.25865 8.47088C9.27428 8.4214 9.28991 8.37452 9.30293 8.32764C9.33939 8.22868 9.37324 8.11408 9.44096 8.03335C9.46179 8.00731 9.48523 7.99168 9.51127 7.99168C9.5842 7.99168 9.62066 8.02293 9.62066 8.09585C9.62066 8.1245 9.60243 8.22868 9.59201 8.25732C9.62847 8.21826 9.66753 8.17919 9.7092 8.14013C10.0999 7.77813 10.3785 7.96303 10.3785 8.14534C10.3785 8.33806 10.1467 8.6063 10.0191 8.75475C9.97745 8.80423 9.89151 8.89538 9.8889 8.92143C9.8889 8.95528 9.91234 8.96831 9.9462 8.96831C9.99828 8.96831 10.1129 8.87715 10.1545 8.8459C10.2848 8.74433 10.4619 8.58807 10.5869 8.47869L10.9723 4.91596C10.178 5.3613 5.82614 5.36391 5.02661 4.92117V4.92117ZM11.0088 4.6998C11.0088 5.24671 4.98755 5.24671 4.98755 4.6998C4.98755 4.47062 6.33659 4.28572 7.99816 4.28572C8.23255 4.28572 8.46173 4.28832 8.6831 4.29613L9.01124 3.02782L10.6077 1.34803C10.6442 1.31157 10.7587 1.34282 10.8655 1.43918C10.9723 1.53554 11.0374 1.64492 11.0036 1.68138L11.001 1.68399L9.50867 3.25961L9.24824 4.31957C10.2874 4.38728 11.0088 4.53052 11.0088 4.6998ZM9.20136 4.8196C9.20136 4.79877 9.17792 4.78054 9.13625 4.76491L9.13104 4.78575C9.13104 4.8196 9.00083 4.84825 8.84196 4.84825C8.6831 4.84825 8.55288 4.8196 8.55288 4.78575C8.55288 4.78314 8.55288 4.78054 8.55548 4.77793L8.56069 4.7597C8.51382 4.77533 8.48256 4.79616 8.48256 4.8196C8.48256 4.87429 8.64403 4.91596 8.83936 4.91596C9.03989 4.91857 9.20136 4.87429 9.20136 4.8196V4.8196Z" fill="#E84C50"/>
</svg>
