<svg width="16" height="16" viewBox="0 0 16 16" fill="none" xmlns="http://www.w3.org/2000/svg">
<path d="M1.33325 1.33325V14.6666H14.6666V1.33325H1.33325ZM8.5892 11.7321C8.5892 13.0297 7.8273 13.6219 6.71718 13.6219C5.7142 13.6219 5.13385 13.1041 4.83623 12.4761L5.85706 11.86C6.05349 12.2083 6.23206 12.5029 6.66361 12.5029C7.07432 12.5029 7.33623 12.3422 7.33623 11.7142V7.45528H8.5892V11.7321V11.7321ZM11.5535 13.6219C10.3898 13.6219 9.63682 13.0684 9.27075 12.3422L10.2916 11.7529C10.5594 12.1904 10.9106 12.5148 11.5267 12.5148C12.0446 12.5148 12.3779 12.2559 12.3779 11.8958C12.3779 11.4672 12.0386 11.3154 11.4642 11.0624L11.1517 10.9285C10.2469 10.5446 9.64873 10.0594 9.64873 9.03861C9.64873 8.09813 10.366 7.38385 11.4821 7.38385C12.2797 7.38385 12.8511 7.66063 13.2618 8.38682L12.2856 9.01182C12.0713 8.6279 11.8392 8.47611 11.4791 8.47611C11.113 8.47611 10.8809 8.70825 10.8809 9.01182C10.8809 9.38682 11.113 9.53861 11.6517 9.77373L11.9642 9.90766C13.0297 10.363 13.6279 10.8303 13.6279 11.8779C13.6279 13.0029 12.741 13.6219 11.5535 13.6219V13.6219Z" fill="#FFD600"/>
</svg>
