<svg width="17" height="16" viewBox="0 0 17 16" fill="none" xmlns="http://www.w3.org/2000/svg">
<path d="M2.5 3.33333C2.5 2.597 3.097 2 3.83333 2H13.1667C13.903 2 14.5 2.597 14.5 3.33333V12.6667C14.5 13.403 13.903 14 13.1667 14H3.83333C3.097 14 2.5 13.403 2.5 12.6667V3.33333Z" fill="#03A9F4"/>
<path d="M7.17197 6.39136H6.50464V7.86936H7.16231C7.34464 7.86936 7.48564 7.80969 7.58564 7.69036C7.68564 7.57102 7.73531 7.39736 7.73531 7.16936C7.73531 6.93269 7.68431 6.74469 7.58231 6.60469C7.48031 6.46469 7.34331 6.39369 7.17197 6.39136Z" fill="#020F16"/>
<path d="M3.5 3V13H13.5V3H3.5ZM8.28833 8.263C8.013 8.53233 7.631 8.66667 7.14267 8.66667H6.50467V10.3333H5.54767V5.59367H7.16233C7.631 5.59367 8.005 5.73933 8.28367 6.03C8.56233 6.32067 8.702 6.69833 8.702 7.16267C8.702 7.627 8.564 7.99367 8.28833 8.263ZM11.394 10.112C11.1577 10.303 10.847 10.3983 10.463 10.3983C10.2047 10.3983 9.97667 10.348 9.77933 10.247C9.582 10.146 9.427 10.0053 9.31533 9.82533C9.20367 9.64533 9.14767 9.451 9.14767 9.24267H10.0233C10.028 9.403 10.065 9.52367 10.1357 9.604C10.2063 9.68433 10.3217 9.72433 10.4823 9.72433C10.7297 9.72433 10.8533 9.61267 10.8533 9.389C10.8533 9.311 10.816 9.23867 10.741 9.17267C10.666 9.10667 10.5 9.01733 10.2417 8.90433C9.862 8.75033 9.601 8.591 9.45867 8.42567C9.31633 8.26033 9.24533 8.05567 9.24533 7.81033C9.24533 7.502 9.35667 7.24767 9.579 7.047C9.80133 6.84633 10.0963 6.746 10.4627 6.746C10.8487 6.746 11.158 6.846 11.3903 7.04533C11.6227 7.24467 11.7387 7.513 11.7387 7.84933H10.8173C10.8173 7.563 10.6983 7.41967 10.4593 7.41967C10.3617 7.41967 10.2817 7.45 10.2183 7.51067C10.155 7.57133 10.124 7.65633 10.124 7.76467C10.124 7.84267 10.1587 7.91167 10.2283 7.97133C10.298 8.031 10.4613 8.11633 10.72 8.227C11.0957 8.366 11.3607 8.52067 11.516 8.691C11.6713 8.86133 11.7487 9.08233 11.7487 9.35333C11.7487 9.66833 11.6303 9.921 11.394 10.112Z" fill="#020F16"/>
</svg>
