<svg width="16" height="16" viewBox="0 0 16 16" fill="none" xmlns="http://www.w3.org/2000/svg">
<path d="M12.2239 5.94718C12.0833 5.90031 11.9426 5.85604 11.802 5.81437C11.8254 5.71802 11.8463 5.62166 11.8671 5.52531C12.1874 3.97323 11.9765 2.72583 11.2655 2.31437C10.5806 1.92114 9.46346 2.33 8.33325 3.31437C8.22127 3.41073 8.1119 3.51229 8.00773 3.61385C7.93742 3.54614 7.8645 3.47843 7.79159 3.41333C6.60669 2.36125 5.41919 1.91854 4.70825 2.3326C4.02596 2.72843 3.82284 3.90291 4.10929 5.37166C4.13794 5.5175 4.16919 5.66073 4.20565 5.80656C4.03898 5.85343 3.87492 5.90552 3.72127 5.9602C2.33065 6.44198 1.33325 7.20239 1.33325 7.98885C1.33325 8.80135 2.39575 9.61645 3.84106 10.1112C3.95825 10.1503 4.07544 10.1894 4.19523 10.2232C4.15617 10.3795 4.12231 10.5331 4.09106 10.692C3.81763 12.1373 4.03117 13.2831 4.71346 13.6764C5.41659 14.0826 6.59888 13.6659 7.74992 12.6581C7.84106 12.5774 7.93221 12.4941 8.02336 12.4055C8.13794 12.5175 8.25773 12.6243 8.37752 12.7284C9.49211 13.6868 10.5937 14.0748 11.2734 13.6816C11.9765 13.2753 12.2056 12.0435 11.9088 10.5435C11.8853 10.429 11.8593 10.3118 11.8306 10.192C11.914 10.1685 11.9947 10.1425 12.0754 10.1165C13.578 9.61906 14.6666 8.81437 14.6666 7.98885C14.6666 7.19979 13.6405 6.43416 12.2239 5.94718V5.94718ZM8.70044 3.73625C9.66919 2.8925 10.5728 2.56177 10.9843 2.79875C11.4244 3.05135 11.5937 4.07218 11.3176 5.41333C11.2994 5.50187 11.2812 5.58781 11.2577 5.67375C10.6796 5.54354 10.0937 5.44979 9.50513 5.39771C9.16659 4.91333 8.79679 4.44979 8.39575 4.01489C8.49732 3.91854 8.59627 3.82739 8.70044 3.73625V3.73625ZM5.68742 9.34041C5.82023 9.56698 5.95565 9.79354 6.09888 10.0149C5.69263 9.97062 5.28898 9.90552 4.89054 9.81958C5.00513 9.44458 5.14836 9.05656 5.31502 8.66073C5.43481 8.88989 5.55721 9.11645 5.68742 9.34041V9.34041ZM4.89836 6.2076C5.27336 6.12427 5.67179 6.05656 6.08586 6.00448C5.94784 6.22062 5.81242 6.44198 5.68481 6.66593C5.55721 6.88729 5.43221 7.11385 5.31502 7.34302C5.15096 6.955 5.01294 6.57479 4.89836 6.2076ZM5.6119 8.00187C5.78377 7.6425 5.97127 7.29093 6.16919 6.94458C6.36711 6.59823 6.58065 6.26229 6.80461 5.93156C7.19523 5.90291 7.59367 5.88729 7.99992 5.88729C8.40617 5.88729 8.80721 5.90291 9.19523 5.93156C9.41659 6.25968 9.62752 6.59562 9.82804 6.93937C10.0286 7.28312 10.2161 7.63468 10.3931 7.99145C10.2187 8.35083 10.0312 8.705 9.83065 9.05395C9.63273 9.40031 9.42179 9.73625 9.20044 10.0696C8.81242 10.0982 8.40877 10.1112 7.99992 10.1112C7.59106 10.1112 7.19523 10.0982 6.81242 10.0748C6.58586 9.74406 6.37231 9.40552 6.17179 9.05916C5.97127 8.71281 5.78638 8.36125 5.6119 8.00187ZM10.315 9.3352C10.4478 9.10604 10.5728 8.87427 10.6952 8.63989C10.8619 9.0175 11.0077 9.40031 11.1353 9.79354C10.7317 9.88468 10.3228 9.955 9.91138 10.0019C10.052 9.78312 10.1848 9.55916 10.315 9.3352ZM10.69 7.34302C10.5676 7.11385 10.4426 6.88468 10.3124 6.66073C10.1848 6.43937 10.052 6.22062 9.91398 6.00448C10.3333 6.05656 10.7343 6.12687 11.1093 6.21281C10.9895 6.59823 10.8489 6.97323 10.69 7.34302V7.34302ZM8.00513 4.41333C8.27857 4.7102 8.53638 5.02271 8.77596 5.34562C8.26034 5.32218 7.74211 5.32218 7.22648 5.34562C7.48169 5.00968 7.74471 4.69718 8.00513 4.41333ZM4.98429 2.81698C5.42179 2.56177 6.39315 2.92635 7.41659 3.8326C7.48169 3.88989 7.54679 3.95239 7.6145 4.01489C7.21086 4.44979 6.83846 4.91333 6.49731 5.39771C5.90877 5.44979 5.32544 5.54093 4.74731 5.66854C4.71346 5.53573 4.68481 5.40031 4.65617 5.26489C4.41138 4.00448 4.57284 3.05395 4.98429 2.81698V2.81698ZM4.34627 9.68156C4.2369 9.65031 4.13013 9.61645 4.02336 9.58C3.46867 9.40552 2.83846 9.12948 2.38273 8.7675C2.11971 8.5852 1.94263 8.30395 1.89315 7.98885C1.89315 7.51229 2.71606 6.90291 3.90356 6.48885C4.052 6.43677 4.20304 6.38989 4.35409 6.34562C4.53117 6.91073 4.74471 7.46541 4.99211 8.00187C4.74211 8.54614 4.52596 9.10864 4.34627 9.68156V9.68156ZM7.38273 12.2336C6.95304 12.6269 6.45565 12.9394 5.91398 13.1529C5.62492 13.2909 5.29159 13.304 4.99471 13.1868C4.58065 12.9472 4.40877 12.0279 4.64315 10.7909C4.67179 10.6451 4.70304 10.4993 4.7395 10.356C5.32284 10.481 5.91138 10.567 6.50773 10.6112C6.85148 11.0982 7.22909 11.5644 7.63273 12.0019C7.5494 12.0826 7.46606 12.1607 7.38273 12.2336ZM8.02075 11.6008C7.75513 11.3144 7.4895 10.9967 7.23169 10.6555C7.48169 10.6659 7.7395 10.6711 7.99992 10.6711C8.26815 10.6711 8.53117 10.6659 8.79159 10.6529C8.552 10.9836 8.29419 11.2987 8.02075 11.6008V11.6008ZM11.4244 12.3821C11.401 12.6998 11.2447 12.9967 10.9947 13.1972C10.5806 13.4368 9.69784 13.1243 8.74471 12.3066C8.63534 12.2128 8.52596 12.1112 8.41398 12.0071C8.81242 11.567 9.17961 11.1008 9.51294 10.6112C10.1093 10.5618 10.703 10.4706 11.289 10.3378C11.315 10.4446 11.3385 10.5514 11.3593 10.6555C11.4869 11.218 11.5077 11.804 11.4244 12.3821V12.3821ZM11.8984 9.5826C11.8254 9.60604 11.7525 9.62948 11.677 9.65031C11.4947 9.0826 11.2708 8.52791 11.0129 7.98885C11.2629 7.4576 11.4739 6.91073 11.651 6.35083C11.7864 6.38989 11.9166 6.43156 12.0416 6.47323C13.2551 6.88989 14.1067 7.50968 14.1067 7.98364C14.1067 8.49406 13.1978 9.15291 11.8984 9.5826ZM7.99992 9.19198C8.65877 9.19198 9.19263 8.65812 9.19263 7.99927C9.19263 7.34041 8.65877 6.80656 7.99992 6.80656C7.34106 6.80656 6.80721 7.34041 6.80721 7.99927C6.80721 8.65812 7.34106 9.19198 7.99992 9.19198Z" fill="#80DEEA"/>
</svg>
