<svg width="16" height="16" viewBox="0 0 16 16" fill="none" xmlns="http://www.w3.org/2000/svg">
<path d="M7.62158 10.5603C7.61533 10.5728 7.60908 10.5828 7.62158 10.5603V10.5603ZM12.8119 8.74782C12.3928 8.74769 11.9794 8.84392 11.6035 9.02908C11.4806 8.78116 11.3535 8.56449 11.3327 8.40199C11.3077 8.2124 11.2806 8.0999 11.3098 7.8749C11.3389 7.64989 11.4702 7.33114 11.4681 7.30822C11.466 7.28531 11.4389 7.17072 11.1702 7.16864C10.9014 7.16656 10.6702 7.22072 10.6433 7.29156C10.5958 7.42101 10.5589 7.55408 10.5329 7.68948C10.485 7.93323 9.99557 8.80407 9.71848 9.25825C9.62682 9.08116 9.54973 8.92491 9.53306 8.79991C9.50806 8.61032 9.48098 8.49782 9.51015 8.27282C9.53931 8.04782 9.67057 7.72906 9.66848 7.70614C9.6664 7.68323 9.63932 7.56864 9.37077 7.56656C9.10223 7.56448 8.87077 7.61864 8.84368 7.68948C8.8166 7.76031 8.78743 7.92698 8.73326 8.0874C8.6791 8.24782 8.02721 9.69783 7.85659 10.0749C7.76909 10.2666 7.69409 10.4208 7.63992 10.5249C7.63158 10.5416 7.62533 10.552 7.62117 10.5603C7.62742 10.5499 7.63158 10.5395 7.63158 10.5437C7.58575 10.6333 7.55867 10.6833 7.55867 10.6833V10.6853C7.52325 10.752 7.48367 10.8124 7.46492 10.8124C7.45242 10.8124 7.42533 10.6374 7.47117 10.3978C7.56908 9.89367 7.80034 9.11033 7.79825 9.08324C7.79617 9.06866 7.842 8.93324 7.64617 8.86033C7.45658 8.79157 7.38783 8.90616 7.37116 8.90616C7.3545 8.90616 7.342 8.94783 7.342 8.94783C7.342 8.94783 7.55242 8.06448 6.93803 8.06448C6.5547 8.06448 6.02136 8.48532 5.75927 8.86657C5.59469 8.95616 5.23843 9.14991 4.86343 9.35616C4.71968 9.43533 4.57176 9.51658 4.43217 9.59367C4.42176 9.58325 4.41342 9.57283 4.40301 9.56242C3.65737 8.76657 2.28069 8.20407 2.33902 7.1353C2.35986 6.74572 2.49527 5.72279 4.98635 4.48111C7.02804 3.46443 8.66035 3.7436 8.94139 4.36444C9.34556 5.24987 8.06867 6.8978 5.94844 7.1353C5.14031 7.22489 4.71551 6.91239 4.60926 6.79572C4.49884 6.6728 4.48217 6.66655 4.44051 6.68947C4.37175 6.72697 4.41551 6.8353 4.44051 6.89989C4.50301 7.06447 4.76343 7.35614 5.20697 7.50198C5.59656 7.62906 6.54407 7.69989 7.68971 7.25614C8.97681 6.7603 9.9787 5.37903 9.68494 4.22277C9.38577 3.04776 7.43742 2.66234 5.5951 3.31651C4.49738 3.7061 3.31028 4.31861 2.45632 5.11653C1.44193 6.06654 1.27964 6.89364 1.3463 7.23947C1.5836 8.46657 3.27487 9.26658 3.95175 9.85825C3.91842 9.877 3.88717 9.89367 3.858 9.91034C3.51862 10.0791 2.22923 10.7541 1.90652 11.4666C1.54193 12.2749 1.96694 12.8541 2.2459 12.9333C3.11653 13.175 4.008 12.7395 4.48696 12.0249C4.96593 11.3104 4.9078 10.377 4.68697 9.952C4.68488 9.94575 4.68072 9.94159 4.67863 9.93534C4.76613 9.88325 4.85572 9.83117 4.9453 9.77909C5.11801 9.677 5.28677 9.58325 5.43468 9.502C5.35135 9.727 5.29093 9.99784 5.25968 10.3895C5.22218 10.8478 5.41177 11.4416 5.6576 11.6749C5.76594 11.777 5.89698 11.7791 5.97823 11.7791C6.26574 11.7791 6.3949 11.5416 6.53845 11.2583C6.71553 10.9124 6.87178 10.5103 6.87178 10.5103C6.87178 10.5103 6.67595 11.5979 7.21137 11.5979C7.407 11.5979 7.60283 11.3458 7.69054 11.2166V11.2187C7.69054 11.2187 7.69471 11.2104 7.70513 11.1937C7.72596 11.1624 7.73638 11.1437 7.73638 11.1437V11.1374C7.81554 11.002 7.98846 10.6916 8.24867 10.1791C8.58618 9.51658 8.90889 8.68949 8.90889 8.68949C8.94008 8.8713 8.98322 9.05086 9.03806 9.227C9.09639 9.42492 9.21931 9.64158 9.31723 9.852C9.23806 9.96034 9.19014 10.0228 9.19014 10.0228C9.1903 10.0244 9.19104 10.0259 9.19223 10.027C9.12973 10.1103 9.05889 10.1999 8.98597 10.2874C8.71951 10.6041 8.40263 10.9666 8.36097 11.0708C8.31097 11.1937 8.32347 11.2854 8.4193 11.3562C8.49014 11.4104 8.61514 11.4187 8.74618 11.4083C8.98577 11.3916 9.15452 11.3333 9.23577 11.2958C9.38556 11.2421 9.52713 11.1677 9.6564 11.0749C9.91682 10.8833 10.0752 10.6083 10.0606 10.2458C10.0522 10.0458 9.98765 9.84575 9.90849 9.65825C9.9314 9.62492 9.9564 9.5895 9.97932 9.55408C10.3916 8.95199 10.7104 8.29115 10.7104 8.29115C10.7416 8.47297 10.7847 8.65253 10.8395 8.82866C10.8895 8.99741 10.9872 9.18283 11.0768 9.36408C10.6895 9.67867 10.45 10.0433 10.3666 10.2828C10.2124 10.7266 10.3333 10.9266 10.5604 10.9724C10.6625 10.9933 10.8083 10.9453 10.9166 10.8995C11.0775 10.8459 11.2292 10.7679 11.3664 10.6683C11.6268 10.4766 11.8787 10.2078 11.8621 9.84325C11.8558 9.67867 11.81 9.51408 11.7495 9.35575C12.0766 9.21825 12.5014 9.14324 13.0431 9.20575C14.2031 9.34116 14.4302 10.0662 14.3865 10.3683C14.3427 10.6703 14.099 10.8391 14.0177 10.8891C13.9364 10.9391 13.9114 10.9578 13.9177 10.9953C13.9281 11.0495 13.9656 11.0474 14.0344 11.0349C14.1302 11.0183 14.6425 10.7891 14.6654 10.2287C14.6988 9.52033 14.0177 8.74116 12.8112 8.74741L12.8119 8.74782ZM3.8705 11.7624C3.48737 12.1812 2.94986 12.3395 2.71882 12.2062C2.4709 12.062 2.56882 11.4458 3.04153 10.9995C3.32903 10.7287 3.69966 10.4787 3.9455 10.3245C4.00175 10.2912 4.083 10.2412 4.183 10.1808C4.19967 10.1703 4.208 10.1662 4.208 10.1662C4.22675 10.1537 4.24759 10.1433 4.26842 10.1308C4.44113 10.7641 4.27467 11.3224 3.8705 11.762V11.7624ZM6.6697 9.85825C6.53636 10.1853 6.25532 11.0187 6.08448 10.9749C5.93865 10.9374 5.84906 10.302 6.05532 9.677C6.15948 9.36241 6.38032 8.98741 6.51157 8.84158C6.72178 8.60616 6.95303 8.53115 7.0072 8.62491C7.08012 8.74782 6.75303 9.65408 6.6697 9.85825ZM8.98222 10.9624C8.92597 10.9916 8.87389 11.0104 8.84889 10.9958C8.83014 10.9853 8.87181 10.9458 8.87181 10.9458C8.87181 10.9458 9.16139 10.6353 9.27598 10.4937C9.34265 10.4103 9.41973 10.3124 9.50286 10.2041C9.50286 10.2145 9.50494 10.2249 9.50494 10.2374C9.50223 10.6103 9.1441 10.8624 8.9816 10.9624H8.98222ZM10.7652 10.5562C10.7235 10.527 10.7297 10.4291 10.8693 10.1249C10.9235 10.0062 11.0483 9.80617 11.2652 9.6145C11.2897 9.68705 11.3031 9.76293 11.3048 9.8395C11.3027 10.3083 10.9672 10.4833 10.7654 10.5562H10.7652Z" fill="#F06292"/>
</svg>
