<svg width="16" height="16" viewBox="0 0 16 16" fill="none" xmlns="http://www.w3.org/2000/svg">
<path d="M14 2H2V14H14V2Z" fill="#1976D2"/>
<path d="M9.16343 7.33325H4.74243V8.42125H6.3281V13.3333H7.58443V8.42125H9.16343V7.33325Z" fill="white"/>
<path d="M13.0646 8.69466C13.0646 8.69466 12.4689 8.29733 11.7956 8.29733C11.1222 8.29733 10.8799 8.61733 10.8799 8.95933C10.8799 9.842 13.3402 9.75366 13.3402 11.53C13.3402 14.2663 9.58891 13.0527 9.58891 13.0527V11.74C9.58891 11.74 10.3062 12.2807 11.1666 12.2807C12.0269 12.2807 11.9942 11.718 11.9942 11.6407C11.9942 10.8243 9.55591 10.8243 9.55591 9.01466C9.55591 6.55433 13.1086 7.525 13.1086 7.525L13.0646 8.69466Z" fill="white"/>
</svg>
