<svg width="16" height="16" viewBox="0 0 16 16" fill="none" xmlns="http://www.w3.org/2000/svg">
<path d="M7.99992 1.33325L2.33325 4.66659V11.3333L7.99992 14.6666L13.6666 11.3333V4.66659L7.99992 1.33325Z" fill="#4F545A"/>
<path d="M7.83333 8.16667V11.1667L5 9.66667V6.5L7.83333 8.16667Z" fill="#0277BD"/>
<path d="M8.16675 8.16667V11.1667L11.0001 9.66667V6.5L8.16675 8.16667Z" fill="#0277BD"/>
<path d="M8.00008 7.83342L5.16675 6.16675L8.00008 4.66675L10.8334 6.16675L8.00008 7.83342Z" fill="#0277BD"/>
<path d="M7.83341 2.33325V4.33325L4.83341 5.99992L3.16675 4.99992L7.83341 2.33325Z" fill="#81D4FA"/>
<path d="M7.83341 13.6667V11.6667L4.83341 10L3.16675 11L7.83341 13.6667Z" fill="#81D4FA"/>
<path d="M4.66667 6.33325L3 5.33325V10.6666L4.66667 9.66659V6.33325Z" fill="#81D4FA"/>
<path d="M8.16675 2.33325V4.33325L11.1667 5.99992L12.8334 4.99992L8.16675 2.33325Z" fill="#81D4FA"/>
<path d="M8.16675 13.6667V11.6667L11.1667 10L12.8334 11L8.16675 13.6667Z" fill="#81D4FA"/>
<path d="M11.3333 6.33325L12.9999 5.33325V10.6666L11.3333 9.66659V6.33325Z" fill="#81D4FA"/>
</svg>
