<svg width="16" height="16" viewBox="0 0 16 16" fill="none" xmlns="http://www.w3.org/2000/svg">
<path d="M2.7768 5.67196L5.50529 13.1451C3.59669 12.2203 2.28218 10.2634 2.28218 7.99992C2.28218 7.16927 2.4596 6.38433 2.7768 5.67196V5.67196ZM11.8601 7.71228C11.8601 7.0053 11.6074 6.51605 11.3897 6.13433C11.0994 5.6639 10.8279 5.26336 10.8279 4.79293C10.8279 4.26605 11.2257 3.7768 11.7876 3.7768C11.8117 3.7768 11.8359 3.77949 11.8628 3.78218C10.844 2.84938 9.48917 2.27949 7.99992 2.27949C6.00261 2.27949 4.24454 3.30368 3.22035 4.85745C3.35476 4.86282 3.4811 4.86551 3.58863 4.86551C4.1854 4.86551 5.11282 4.79293 5.11282 4.79293C5.42196 4.77411 5.45691 5.22841 5.15046 5.26336C5.15046 5.26336 4.84132 5.29831 4.49723 5.31712L6.58056 11.5107L7.83325 7.75798L6.94347 5.31712C6.63433 5.29831 6.344 5.26336 6.344 5.26336C6.03486 5.24454 6.0725 4.77411 6.37895 4.79293C6.37895 4.79293 7.3225 4.86551 7.88433 4.86551C8.4811 4.86551 9.40852 4.79293 9.40852 4.79293C9.71766 4.77411 9.75261 5.22841 9.44615 5.26336C9.44615 5.26336 9.13702 5.29831 8.79293 5.31712L10.8601 11.465L11.43 9.55906C11.672 8.76874 11.8601 8.20153 11.8601 7.71228ZM8.09938 8.49992L6.38433 13.4865C6.89777 13.637 7.43809 13.7203 7.99992 13.7203C8.66659 13.7203 9.30368 13.6048 9.89777 13.3951C9.88164 13.3709 9.8682 13.344 9.85745 13.3171L8.09938 8.49992ZM13.0187 5.25529C13.0429 5.43809 13.0564 5.63164 13.0564 5.844C13.0564 6.42465 12.9488 7.07519 12.6209 7.89239L10.8736 12.9435C12.5752 11.9515 13.7177 10.1101 13.7177 7.99992C13.7177 7.0053 13.465 6.06981 13.0187 5.25529V5.25529ZM14.6666 7.99992C14.6666 11.6773 11.6746 14.6666 7.99992 14.6666C4.3225 14.6666 1.33325 11.6746 1.33325 7.99992C1.33325 4.3225 4.3225 1.33325 7.99992 1.33325C11.6746 1.33325 14.6666 4.3225 14.6666 7.99992ZM14.3601 7.99992C14.3601 4.49185 11.5053 1.6397 7.99992 1.6397C4.49185 1.6397 1.6397 4.49185 1.6397 7.99992C1.6397 11.508 4.49454 14.3601 7.99992 14.3601C11.508 14.3601 14.3601 11.508 14.3601 7.99992Z" fill="#01579B"/>
</svg>
