<svg width="17" height="18" viewBox="0 0 17 18" fill="none" xmlns="http://www.w3.org/2000/svg">
<path d="M13.3699 10.7709H12.4845C12.367 10.7709 12.2544 10.8176 12.1714 10.9006C12.0884 10.9836 12.0417 11.0962 12.0417 11.2136V14.3126H3.18758V5.45841H7.17196C7.28937 5.45841 7.40197 5.41177 7.485 5.32875C7.56802 5.24572 7.61467 5.13312 7.61467 5.01571V4.13029C7.61467 4.01288 7.56802 3.90027 7.485 3.81725C7.40197 3.73422 7.28937 3.68758 7.17196 3.68758H2.74487C2.39263 3.68758 2.05482 3.82751 1.80575 4.07658C1.55668 4.32565 1.41675 4.66347 1.41675 5.01571L1.41675 14.7553C1.41675 15.1075 1.55668 15.4453 1.80575 15.6944C2.05482 15.9435 2.39263 16.0834 2.74487 16.0834H12.4845C12.8367 16.0834 13.1745 15.9435 13.4236 15.6944C13.6727 15.4453 13.8126 15.1075 13.8126 14.7553V11.2136C13.8126 11.0962 13.7659 10.9836 13.6829 10.9006C13.5999 10.8176 13.4873 10.7709 13.3699 10.7709ZM14.9194 1.91675H11.3777C10.7864 1.91675 10.4909 2.63366 10.9073 3.05119L11.8959 4.03981L5.1521 10.7812C5.09019 10.8428 5.04107 10.9162 5.00755 10.9969C4.97404 11.0776 4.95678 11.1641 4.95678 11.2515C4.95678 11.3389 4.97404 11.4255 5.00755 11.5062C5.04107 11.5869 5.09019 11.6602 5.1521 11.7219L5.77936 12.3481C5.84106 12.41 5.91436 12.4591 5.99508 12.4926C6.0758 12.5261 6.16234 12.5434 6.24974 12.5434C6.33714 12.5434 6.42368 12.5261 6.5044 12.4926C6.58512 12.4591 6.65842 12.41 6.72012 12.3481L13.4606 5.60562L14.449 6.59285C14.864 7.00789 15.5834 6.71737 15.5834 6.12248V2.58081C15.5834 2.40469 15.5135 2.23578 15.3889 2.11125C15.2644 1.98671 15.0955 1.91675 14.9194 1.91675V1.91675Z" fill="#4F545A"/>
</svg>
