<svg width="17" height="18" viewBox="0 0 17 18" fill="none" xmlns="http://www.w3.org/2000/svg">
<path d="M10.4539 7.04639C12.107 8.70125 12.0843 11.3544 10.4638 12.9839C10.4608 12.9872 10.4572 12.9908 10.4539 12.9942L8.59449 14.8535C6.95453 16.4935 4.28642 16.4933 2.64671 14.8535C1.00676 13.2139 1.00676 10.5454 2.64671 8.90576L3.67341 7.87906C3.94567 7.6068 4.41456 7.78776 4.42861 8.17252C4.44654 8.66288 4.53447 9.15553 4.69673 9.63127C4.75168 9.79236 4.71242 9.97055 4.59205 10.0909L4.22995 10.453C3.45449 11.2285 3.43017 12.4911 4.19799 13.2742C4.97339 14.0649 6.24789 14.0696 7.02924 13.2883L8.88861 11.4292C9.66864 10.6492 9.66537 9.38839 8.88861 8.61163C8.78621 8.50942 8.68306 8.43001 8.60249 8.37454C8.54549 8.33539 8.49842 8.28347 8.46505 8.22291C8.43167 8.16235 8.41292 8.09483 8.41027 8.02574C8.39931 7.73336 8.5029 7.43207 8.73394 7.20103L9.31649 6.61845C9.46925 6.46569 9.70889 6.44693 9.88603 6.57056C10.0889 6.71221 10.2789 6.87143 10.4539 7.04639ZM14.3534 3.14663C12.7137 1.5069 10.0456 1.50668 8.40565 3.14663L6.54628 5.006C6.54296 5.00932 6.53936 5.01292 6.53631 5.01624C4.91584 6.64574 4.89312 9.29891 6.54628 10.9538C6.72122 11.1287 6.91122 11.2879 7.11408 11.4296C7.29121 11.5532 7.53089 11.5344 7.68362 11.3817L8.26617 10.7991C8.49721 10.5681 8.6008 10.2668 8.58984 9.9744C8.58719 9.9053 8.56843 9.83778 8.53506 9.77722C8.50169 9.71666 8.45462 9.66474 8.39762 9.6256C8.31705 9.57012 8.2139 9.49071 8.1115 9.3885C7.33474 8.61174 7.33147 7.35097 8.1115 6.57095L9.97087 4.71185C10.7522 3.9305 12.0267 3.9352 12.8021 4.72596C13.5699 5.509 13.5456 6.77166 12.7702 7.54712L12.4081 7.90922C12.2877 8.02958 12.2484 8.20777 12.3034 8.36886C12.4656 8.84461 12.5536 9.33726 12.5715 9.82761C12.5856 10.2124 13.0544 10.3933 13.3267 10.1211L14.3534 9.09438C15.9934 7.45473 15.9934 4.78631 14.3534 3.14663Z" fill="#4F545A"/>
</svg>
