<svg width="759" height="128" viewBox="0 0 759 128" fill="none" xmlns="http://www.w3.org/2000/svg">
<rect width="759" height="128" rx="32" fill="black"/>
<path d="M59.512 36.92V56H63.4V30.26H42.7V56H46.588V36.92C46.588 35.228 46.264 34.292 45.868 33.716L46.264 33.284C46.948 33.68 49.18 34.004 53.032 34.004C56.884 34.004 59.152 33.68 59.836 33.284L60.232 33.716C59.836 34.292 59.512 35.228 59.512 36.92ZM67.3819 46.424C67.3819 52.364 69.5779 56.36 75.3379 56.36C81.0979 56.36 83.3299 52.364 83.3299 46.424C83.3299 40.484 81.0259 36.56 75.3379 36.56C69.6499 36.56 67.3819 40.484 67.3819 46.424ZM70.5859 46.424C70.5859 42.248 71.8459 39.98 75.3739 39.98C78.9019 39.98 80.1619 42.248 80.1619 46.424C80.1619 50.6 78.9019 52.832 75.3739 52.832C71.8459 52.832 70.5859 50.6 70.5859 46.424ZM102.882 49.412V36.92H90.1382C89.8862 42.5 89.4182 47.036 88.5902 50.276C88.1582 51.968 87.3302 52.472 85.6382 52.4L84.8102 52.364V60.176H88.0142L88.0502 58.196C88.0862 56.792 87.9422 56.324 87.5462 55.784L87.9062 55.424C88.5182 55.82 90.1742 56 95.2502 56C100.326 56 101.946 55.82 102.558 55.424L102.918 55.784C102.522 56.324 102.378 56.792 102.414 58.196L102.45 60.176H105.69V52.364H104.97C103.71 52.364 103.35 52.508 102.738 52.94L102.378 52.58C102.774 52.004 102.882 51.284 102.882 49.412ZM92.9102 44.012C93.0542 41.492 92.9102 40.592 92.5142 39.908L92.8742 39.548C93.5222 39.944 94.4222 40.088 96.0782 40.088C97.7342 40.088 98.8502 39.944 99.4982 39.548L99.8582 39.908C99.4622 40.592 99.3542 41.744 99.3542 44.264V50.168C99.3542 51.572 99.4622 52.04 99.8582 52.58L99.5342 52.976C98.9222 52.58 97.4822 52.364 95.0702 52.364C92.6582 52.364 91.1102 52.616 90.4622 53.012L90.2102 52.544C90.9302 52.112 91.7582 51.356 92.1182 49.772C92.5502 47.792 92.8022 45.956 92.9102 44.012ZM112.562 56V44.336C112.562 41.816 112.346 40.664 111.95 39.98L112.31 39.584C112.958 39.944 114.362 40.16 116.738 40.16C119.114 40.16 120.518 39.944 121.166 39.584L121.526 39.98C121.13 40.664 120.914 41.816 120.914 44.336V56H124.55V36.92H108.926V56H112.562ZM142.026 40.124L142.566 40.34C142.17 41.168 141.882 42.212 141.882 44.84V56H145.374V36.92H141.558C135.942 44.984 132.954 51.932 132.594 52.796L132.054 52.58C132.45 51.752 132.738 50.708 132.738 48.08V36.92H129.246V56H133.314C139.29 46.856 141.666 41.024 142.026 40.124ZM148.979 46.424C148.979 52.652 151.787 56.36 157.187 56.36C161.183 56.36 163.307 54.38 164.639 50.996L161.579 49.7C160.895 51.536 159.671 52.868 157.187 52.868C154.163 52.868 152.435 50.888 152.435 46.424C152.435 41.96 154.055 39.872 157.079 39.872C159.599 39.872 160.823 41.132 161.399 43.076L164.459 41.78C163.235 38.468 160.967 36.56 157.151 36.56C151.751 36.56 148.979 40.196 148.979 46.424ZM167.883 36.92H171.555V41.42C171.555 43.256 171.303 43.94 170.979 44.336L171.339 44.732C171.771 44.444 172.311 44.192 173.931 44.192H174.615C178.539 44.192 181.131 45.992 181.131 49.952C181.131 53.912 178.539 56 174.615 56H167.883V36.92ZM183.363 36.92V56H187.035V36.92H183.363ZM173.823 52.616H174.471C176.667 52.616 177.783 51.716 177.783 49.952C177.783 48.188 176.667 47.324 174.471 47.324H173.823C172.275 47.324 171.807 47.108 171.375 46.82L171.015 47.216C171.339 47.648 171.519 48.296 171.519 49.952C171.519 51.608 171.339 52.292 171.015 52.724L171.375 53.12C171.807 52.832 172.275 52.616 173.823 52.616ZM205.723 41.744C205.723 38.288 203.239 36.92 199.315 36.92H191.719V56H199.495C204.103 56 206.407 53.588 206.407 50.384C206.407 47.324 203.923 46.064 201.799 45.848V45.344C203.815 45.056 205.723 44.012 205.723 41.744ZM197.551 39.944H199.315C201.259 39.944 202.267 40.556 202.267 41.996C202.267 43.436 201.259 44.156 199.315 44.156H197.551C196.003 44.156 195.535 44.372 195.103 44.66L194.743 44.264C195.067 43.832 195.247 43.076 195.247 41.996C195.247 40.916 195.067 40.268 194.743 39.836L195.103 39.44C195.535 39.728 196.003 39.944 197.551 39.944ZM199.495 52.724H197.551C196.003 52.724 195.535 52.94 195.103 53.228L194.743 52.832C195.067 52.4 195.247 51.536 195.247 49.952C195.247 48.368 195.067 47.576 194.743 47.144L195.103 46.748C195.535 47.036 196.003 47.252 197.551 47.252H199.495C201.727 47.252 202.879 48.26 202.879 50.024C202.879 51.752 201.727 52.724 199.495 52.724ZM220.8 49.808L221.376 50.06L221.124 50.672C220.764 51.572 220.44 52.58 220.44 53.408C220.44 54.92 221.34 56.036 223.788 56.036C224.94 56.036 225.768 56.036 226.92 55.964L226.2 52.364H225.228C224.112 52.364 223.644 52.004 223.716 50.96V42.032C223.716 38.54 221.772 36.524 216.768 36.524C211.8 36.524 210.216 38.468 209.496 40.988L212.952 41.744C213.312 40.376 214.176 39.512 216.732 39.512C219.468 39.512 220.368 40.448 220.188 42.356C218.172 42.932 216.552 43.4 214.608 44.048C211.44 45.092 209.208 47.324 209.208 51.104C209.208 54.2 210.828 56.252 213.672 56.252C216.768 56.252 219.252 53.768 220.548 50.456L220.8 49.808ZM219.936 44.66L220.404 44.84V47.432C219.864 50.456 218.064 53.228 215.04 53.228C213.636 53.228 212.736 52.292 212.736 50.924C212.736 48.98 213.708 47.684 215.76 46.82C217.956 45.884 219.216 45.344 219.936 44.66ZM238.001 35.156C241.709 35.156 242.501 32.528 242.501 30.26L240.305 30.152C240.197 31.556 239.801 32.564 238.001 32.564C236.201 32.564 235.805 31.556 235.697 30.152L233.429 30.26C233.429 32.528 234.293 35.156 238.001 35.156ZM242.573 40.124L243.113 40.34C242.717 41.168 242.429 42.212 242.429 44.84V56H245.921V36.92H242.105C236.489 44.984 233.501 51.932 233.141 52.796L232.601 52.58C232.997 51.752 233.285 50.708 233.285 48.08V36.92H229.793V56H233.861C239.837 46.856 242.213 41.024 242.573 40.124ZM254.674 44.444V56H258.382V44.444C258.382 41.924 258.202 40.808 257.806 40.088L258.202 39.692C258.85 40.088 260.218 40.268 262.018 40.268H264.106V36.92H248.986V40.268H251.038C252.838 40.268 254.206 40.088 254.854 39.692L255.25 40.088C254.854 40.808 254.674 41.924 254.674 44.444ZM281.401 51.104L278.449 49.808C277.765 51.68 276.505 52.904 273.913 52.904C270.529 52.904 269.269 50.852 268.981 47.9C268.945 47.504 268.909 47.144 268.765 46.784H281.113C281.149 46.388 281.185 45.704 281.185 45.344C281.149 39.872 278.305 36.524 273.589 36.524C268.405 36.524 265.381 40.268 265.381 46.28C265.381 52.184 268.081 56.36 273.877 56.36C278.089 56.36 280.213 53.984 281.401 51.104ZM277.693 42.86C277.801 43.328 277.909 43.688 278.125 44.084L277.729 44.444C277.189 44.084 275.461 43.76 273.373 43.76C271.285 43.76 269.593 44.084 269.053 44.444L268.657 44.084C268.873 43.688 268.981 43.328 269.125 42.86C269.665 40.88 271.177 39.692 273.589 39.692C276.001 39.692 277.225 40.808 277.693 42.86ZM283.733 46.424C283.733 52.652 286.541 56.36 291.941 56.36C295.937 56.36 298.061 54.38 299.393 50.996L296.333 49.7C295.649 51.536 294.425 52.868 291.941 52.868C288.917 52.868 287.189 50.888 287.189 46.424C287.189 41.96 288.809 39.872 291.833 39.872C294.353 39.872 295.577 41.132 296.153 43.076L299.213 41.78C297.989 38.468 295.721 36.56 291.905 36.56C286.505 36.56 283.733 40.196 283.733 46.424ZM306.309 36.92H302.637V56H310.521C314.445 56 317.037 53.912 317.037 49.952C317.037 45.992 314.445 44.192 310.521 44.192H308.685C307.065 44.192 306.525 44.444 306.093 44.732L305.733 44.336C306.057 43.94 306.309 43.256 306.309 41.42V36.92ZM310.377 52.616H308.577C307.029 52.616 306.561 52.832 306.129 53.12L305.769 52.724C306.093 52.292 306.273 51.608 306.273 49.952C306.273 48.296 306.093 47.648 305.769 47.216L306.129 46.82C306.561 47.108 307.029 47.324 308.577 47.324H310.377C312.573 47.324 313.689 48.188 313.689 49.952C313.689 51.716 312.573 52.616 310.377 52.616ZM45.976 96V91.716C45.976 89.196 45.868 88.044 45.472 87.36L45.832 86.964C46.48 87.36 47.812 87.54 50.188 87.54C52.564 87.54 53.896 87.36 54.544 86.964L54.904 87.36C54.508 88.044 54.4 89.196 54.4 91.716V96H58V76.92H54.4V80.052C54.4 82.572 54.508 83.724 54.904 84.408L54.544 84.804C53.896 84.408 52.564 84.228 50.188 84.228C47.812 84.228 46.48 84.408 45.832 84.804L45.472 84.408C45.868 83.724 45.976 82.572 45.976 80.052V76.92H42.34V96H45.976ZM73.4955 89.808L74.0715 90.06L73.8195 90.672C73.4595 91.572 73.1355 92.58 73.1355 93.408C73.1355 94.92 74.0355 96.036 76.4835 96.036C77.6355 96.036 78.4635 96.036 79.6155 95.964L78.8955 92.364H77.9235C76.8075 92.364 76.3395 92.004 76.4115 90.96V82.032C76.4115 78.54 74.4675 76.524 69.4635 76.524C64.4955 76.524 62.9115 78.468 62.1915 80.988L65.6475 81.744C66.0075 80.376 66.8715 79.512 69.4275 79.512C72.1635 79.512 73.0635 80.448 72.8835 82.356C70.8675 82.932 69.2475 83.4 67.3035 84.048C64.1355 85.092 61.9035 87.324 61.9035 91.104C61.9035 94.2 63.5235 96.252 66.3675 96.252C69.4635 96.252 71.9475 93.768 73.2435 90.456L73.4955 89.808ZM72.6315 84.66L73.0995 84.84V87.432C72.5595 90.456 70.7595 93.228 67.7355 93.228C66.3315 93.228 65.4315 92.292 65.4315 90.924C65.4315 88.98 66.4035 87.684 68.4555 86.82C70.6515 85.884 71.9115 85.344 72.6315 84.66ZM107.05 76.92L103.702 88.296C102.982 90.744 102.73 91.752 102.658 92.688H102.154C102.082 91.752 101.938 90.672 101.182 88.296L97.5823 76.92H92.5783V96H95.8543V83.724C95.8543 81.42 95.3143 79.836 95.0623 79.188L95.6023 79.008L100.534 96H104.134L109.066 79.008L109.606 79.188C109.354 79.836 108.814 81.42 108.814 83.724V96H112.09V76.92H107.05ZM131.706 91.104L128.754 89.808C128.07 91.68 126.81 92.904 124.218 92.904C120.834 92.904 119.574 90.852 119.286 87.9C119.25 87.504 119.214 87.144 119.07 86.784H131.418C131.454 86.388 131.49 85.704 131.49 85.344C131.454 79.872 128.61 76.524 123.894 76.524C118.71 76.524 115.686 80.268 115.686 86.28C115.686 92.184 118.386 96.36 124.182 96.36C128.394 96.36 130.518 93.984 131.706 91.104ZM127.998 82.86C128.106 83.328 128.214 83.688 128.43 84.084L128.034 84.444C127.494 84.084 125.766 83.76 123.678 83.76C121.59 83.76 119.898 84.084 119.358 84.444L118.962 84.084C119.178 83.688 119.286 83.328 119.43 82.86C119.97 80.88 121.482 79.692 123.894 79.692C126.306 79.692 127.53 80.808 127.998 82.86ZM138.753 96V91.716C138.753 89.196 138.645 88.044 138.249 87.36L138.609 86.964C139.257 87.36 140.589 87.54 142.965 87.54C145.341 87.54 146.673 87.36 147.321 86.964L147.681 87.36C147.285 88.044 147.177 89.196 147.177 91.716V96H150.777V76.92H147.177V80.052C147.177 82.572 147.285 83.724 147.681 84.408L147.321 84.804C146.673 84.408 145.341 84.228 142.965 84.228C140.589 84.228 139.257 84.408 138.609 84.804L138.249 84.408C138.645 83.724 138.753 82.572 138.753 80.052V76.92H135.117V96H138.753ZM161.377 76.92C157.453 76.92 155.041 79.008 155.041 82.464C155.041 85.596 157.021 87.288 160.153 87.756C159.685 88.08 158.857 88.836 157.957 90.24L154.213 96H158.209L162.889 87.972H163.897C165.445 87.972 165.913 87.756 166.345 87.468L166.705 87.864C166.381 88.296 166.201 88.872 166.201 90.276V96H169.765V76.92H161.377ZM166.741 84.804L166.381 85.2C165.949 84.912 165.481 84.696 163.933 84.696H161.377C159.505 84.696 158.497 83.868 158.497 82.392C158.497 80.916 159.505 80.052 161.377 80.052H163.933C165.481 80.052 165.949 79.836 166.381 79.548L166.741 79.944C166.417 80.376 166.237 80.952 166.237 82.356C166.237 83.76 166.417 84.372 166.741 84.804ZM198.551 81.744C198.551 78.288 196.067 76.92 192.143 76.92H184.547V96H192.323C196.931 96 199.235 93.588 199.235 90.384C199.235 87.324 196.751 86.064 194.627 85.848V85.344C196.643 85.056 198.551 84.012 198.551 81.744ZM190.379 79.944H192.143C194.087 79.944 195.095 80.556 195.095 81.996C195.095 83.436 194.087 84.156 192.143 84.156H190.379C188.831 84.156 188.363 84.372 187.931 84.66L187.571 84.264C187.895 83.832 188.075 83.076 188.075 81.996C188.075 80.916 187.895 80.268 187.571 79.836L187.931 79.44C188.363 79.728 188.831 79.944 190.379 79.944ZM192.323 92.724H190.379C188.831 92.724 188.363 92.94 187.931 93.228L187.571 92.832C187.895 92.4 188.075 91.536 188.075 89.952C188.075 88.368 187.895 87.576 187.571 87.144L187.931 86.748C188.363 87.036 188.831 87.252 190.379 87.252H192.323C194.555 87.252 195.707 88.26 195.707 90.024C195.707 91.752 194.555 92.724 192.323 92.724ZM227.066 87.54V96H230.918V70.26H220.118C215.402 70.26 212.378 72.996 212.378 77.46C212.378 81.852 215.33 84.228 219.326 84.696C218.462 85.272 217.706 86.064 216.878 87.432L211.406 96H215.834L222.314 84.948H224.438C226.094 84.948 226.778 84.696 227.39 84.264L227.786 84.66C227.39 85.236 227.066 85.848 227.066 87.54ZM223.79 81.312H220.154C217.67 81.312 216.158 79.98 216.158 77.676C216.158 75.372 217.706 74.04 220.154 74.04H223.79C225.842 74.04 226.742 73.752 227.426 73.356L227.822 73.752C227.426 74.328 227.102 75.3 227.102 77.64C227.102 79.98 227.426 81.024 227.822 81.6L227.426 81.996C226.742 81.6 225.842 81.312 223.79 81.312ZM239.581 96V91.716C239.581 89.196 239.473 88.044 239.077 87.36L239.437 86.964C240.085 87.36 241.417 87.54 243.793 87.54C246.169 87.54 247.501 87.36 248.149 86.964L248.509 87.36C248.113 88.044 248.005 89.196 248.005 91.716V96H251.605V76.92H248.005V80.052C248.005 82.572 248.113 83.724 248.509 84.408L248.149 84.804C247.501 84.408 246.169 84.228 243.793 84.228C241.417 84.228 240.085 84.408 239.437 84.804L239.077 84.408C239.473 83.724 239.581 82.572 239.581 80.052V76.92H235.945V96H239.581ZM272.933 89.412V76.92H260.189C259.937 82.5 259.469 87.036 258.641 90.276C258.209 91.968 257.381 92.472 255.689 92.4L254.861 92.364V100.176H258.065L258.101 98.196C258.137 96.792 257.993 96.324 257.597 95.784L257.957 95.424C258.569 95.82 260.225 96 265.301 96C270.377 96 271.997 95.82 272.609 95.424L272.969 95.784C272.573 96.324 272.429 96.792 272.465 98.196L272.501 100.176H275.741V92.364H275.021C273.761 92.364 273.401 92.508 272.789 92.94L272.429 92.58C272.825 92.004 272.933 91.284 272.933 89.412ZM262.961 84.012C263.105 81.492 262.961 80.592 262.565 79.908L262.925 79.548C263.573 79.944 264.473 80.088 266.129 80.088C267.785 80.088 268.901 79.944 269.549 79.548L269.909 79.908C269.513 80.592 269.405 81.744 269.405 84.264V90.168C269.405 91.572 269.513 92.04 269.909 92.58L269.585 92.976C268.973 92.58 267.533 92.364 265.121 92.364C262.709 92.364 261.161 92.616 260.513 93.012L260.261 92.544C260.981 92.112 261.809 91.356 262.169 89.772C262.601 87.792 262.853 85.956 262.961 84.012ZM293.214 91.104L290.262 89.808C289.578 91.68 288.318 92.904 285.726 92.904C282.342 92.904 281.082 90.852 280.794 87.9C280.758 87.504 280.722 87.144 280.578 86.784H292.926C292.962 86.388 292.998 85.704 292.998 85.344C292.962 79.872 290.118 76.524 285.402 76.524C280.218 76.524 277.194 80.268 277.194 86.28C277.194 92.184 279.894 96.36 285.69 96.36C289.902 96.36 292.026 93.984 293.214 91.104ZM289.506 82.86C289.614 83.328 289.722 83.688 289.938 84.084L289.542 84.444C289.002 84.084 287.274 83.76 285.186 83.76C283.098 83.76 281.406 84.084 280.866 84.444L280.47 84.084C280.686 83.688 280.794 83.328 280.938 82.86C281.478 80.88 282.99 79.692 285.402 79.692C287.814 79.692 289.038 80.808 289.506 82.86ZM308.757 96H312.825L307.209 87.36C306.309 85.956 305.373 85.164 305.049 84.912L311.745 76.92H307.461L302.061 83.796C300.945 85.2 300.513 86.1 300.261 86.748L299.793 86.568C300.045 85.92 300.297 85.02 300.297 82.032V76.92H296.625V96H300.297V92.292C300.297 91.14 300.225 90.708 300.225 90.708L303.249 87.108L308.757 96ZM313.545 86.424C313.545 92.652 316.353 96.36 321.753 96.36C325.749 96.36 327.873 94.38 329.205 90.996L326.145 89.7C325.461 91.536 324.237 92.868 321.753 92.868C318.729 92.868 317.001 90.888 317.001 86.424C317.001 81.96 318.621 79.872 321.645 79.872C324.165 79.872 325.389 81.132 325.965 83.076L329.025 81.78C327.801 78.468 325.533 76.56 321.717 76.56C316.317 76.56 313.545 80.196 313.545 86.424ZM364.859 89.484V70.26H348.551C348.083 79.26 347.399 84.336 346.175 89.412C345.599 91.788 344.771 92.364 342.359 92.364H341.459V101.4H344.987L345.023 98.916C345.059 97.224 344.699 96.324 344.303 95.748L344.699 95.28C345.455 95.604 348.191 96 354.635 96C361.079 96 363.779 95.604 364.535 95.28L364.931 95.748C364.535 96.324 364.175 97.224 364.211 98.916L364.247 101.4H367.919V92.328H367.307C365.759 92.328 365.327 92.472 364.715 92.868L364.319 92.436C364.751 91.86 364.859 91.176 364.859 89.484ZM361.007 76.92V89.772C361.007 91.464 361.223 92.004 361.583 92.544L361.259 93.012C360.539 92.724 358.091 92.4 354.923 92.4C351.755 92.4 348.875 92.76 348.155 93.048L347.903 92.508C348.695 92.076 349.451 91.248 349.811 89.772C350.927 85.128 351.539 80.88 351.827 76.92C351.935 75.228 351.647 74.328 351.287 73.788L351.683 73.32C352.403 73.608 353.735 73.932 356.435 73.932C359.135 73.932 360.467 73.608 361.187 73.32L361.583 73.788C361.223 74.328 361.007 75.228 361.007 76.92ZM370.464 80.736L373.236 82.14C373.956 80.592 374.856 79.728 377.52 79.728C379.788 79.728 381.048 80.556 381.048 81.96C381.048 83.256 380.148 83.976 377.7 84.156L375.792 84.228V87.324L377.7 87.396C380.22 87.54 381.624 88.476 381.624 90.348C381.624 92.004 380.4 93.012 377.7 93.012C374.604 93.012 373.56 91.5 373.128 89.844L370.068 91.068C370.896 94.416 373.164 96.396 377.7 96.396C382.668 96.396 385.152 94.056 385.152 90.528C385.152 87.576 382.668 86.136 380.544 85.92V85.416C382.56 85.092 384.468 83.688 384.468 81.492C384.468 78.072 381.48 76.56 377.556 76.56C373.38 76.56 371.544 78.036 370.464 80.736ZM403.745 91.104L400.793 89.808C400.109 91.68 398.849 92.904 396.257 92.904C392.873 92.904 391.613 90.852 391.325 87.9C391.289 87.504 391.253 87.144 391.109 86.784H403.457C403.493 86.388 403.529 85.704 403.529 85.344C403.493 79.872 400.649 76.524 395.933 76.524C390.749 76.524 387.725 80.268 387.725 86.28C387.725 92.184 390.425 96.36 396.221 96.36C400.433 96.36 402.557 93.984 403.745 91.104ZM400.037 82.86C400.145 83.328 400.253 83.688 400.469 84.084L400.073 84.444C399.533 84.084 397.805 83.76 395.717 83.76C393.629 83.76 391.937 84.084 391.397 84.444L391.001 84.084C391.217 83.688 391.325 83.328 391.469 82.86C392.009 80.88 393.521 79.692 395.933 79.692C398.345 79.692 399.569 80.808 400.037 82.86ZM410.792 96V91.716C410.792 89.196 410.684 88.044 410.288 87.36L410.648 86.964C411.296 87.36 412.628 87.54 415.004 87.54C417.38 87.54 418.712 87.36 419.36 86.964L419.72 87.36C419.324 88.044 419.216 89.196 419.216 91.716V96H422.816V76.92H419.216V80.052C419.216 82.572 419.324 83.724 419.72 84.408L419.36 84.804C418.712 84.408 417.38 84.228 415.004 84.228C412.628 84.228 411.296 84.408 410.648 84.804L410.288 84.408C410.684 83.724 410.792 82.572 410.792 80.052V76.92H407.156V96H410.792ZM442.452 91.104L439.5 89.808C438.816 91.68 437.556 92.904 434.964 92.904C431.58 92.904 430.32 90.852 430.032 87.9C429.996 87.504 429.96 87.144 429.816 86.784H442.164C442.2 86.388 442.236 85.704 442.236 85.344C442.2 79.872 439.356 76.524 434.64 76.524C429.456 76.524 426.432 80.268 426.432 86.28C426.432 92.184 429.132 96.36 434.928 96.36C439.14 96.36 441.264 93.984 442.452 91.104ZM438.744 82.86C438.852 83.328 438.96 83.688 439.176 84.084L438.78 84.444C438.24 84.084 436.512 83.76 434.424 83.76C432.336 83.76 430.644 84.084 430.104 84.444L429.708 84.084C429.924 83.688 430.032 83.328 430.176 82.86C430.716 80.88 432.228 79.692 434.64 79.692C437.052 79.692 438.276 80.808 438.744 82.86Z" fill="white"/>
<rect x="476" y="32" width="243" height="64" rx="16" fill="#FF5317"/>
<rect x="476" y="32" width="243" height="64" rx="16" fill="#FF5317"/>
<path d="M545.172 54.792H558.636V72H555.708V57.312H548.076V72H545.172V54.792Z" fill="white"/>
<path d="M567.417 72.24C566.537 72.24 565.721 72.096 564.969 71.808C564.217 71.52 563.561 71.104 563.001 70.56C562.457 70 562.025 69.32 561.705 68.52C561.401 67.72 561.249 66.8 561.249 65.76C561.249 64.72 561.401 63.8 561.705 63C562.025 62.2 562.457 61.528 563.001 60.984C563.561 60.424 564.217 60.008 564.969 59.736C565.721 59.448 566.537 59.304 567.417 59.304C568.297 59.304 569.113 59.448 569.865 59.736C570.617 60.008 571.273 60.424 571.833 60.984C572.393 61.528 572.833 62.2 573.153 63C573.473 63.8 573.633 64.72 573.633 65.76C573.633 66.8 573.473 67.72 573.153 68.52C572.833 69.32 572.393 70 571.833 70.56C571.273 71.104 570.617 71.52 569.865 71.808C569.113 72.096 568.297 72.24 567.417 72.24ZM567.417 69.912C568.377 69.912 569.169 69.576 569.793 68.904C570.433 68.232 570.753 67.184 570.753 65.76C570.753 64.352 570.433 63.312 569.793 62.64C569.169 61.952 568.377 61.608 567.417 61.608C566.473 61.608 565.681 61.952 565.041 62.64C564.417 63.312 564.105 64.352 564.105 65.76C564.105 67.184 564.417 68.232 565.041 68.904C565.681 69.576 566.473 69.912 567.417 69.912Z" fill="white"/>
<path d="M575.462 69.744C575.83 69.424 576.118 68.984 576.326 68.424C576.55 67.864 576.726 67.168 576.854 66.336C576.982 65.488 577.078 64.504 577.142 63.384C577.206 62.264 577.262 60.984 577.31 59.544H586.43V69.744H588.302V75.552H585.878L585.662 72H577.07L576.854 75.552H574.406V69.744H575.462ZM583.646 69.744V61.8H579.71C579.63 63.768 579.494 65.4 579.302 66.696C579.126 67.976 578.83 68.992 578.414 69.744H583.646Z" fill="white"/>
<path d="M590.4 59.544H600.984V72H598.2V61.8H593.184V72H590.4V59.544Z" fill="white"/>
<path d="M606.871 68.232L612.631 59.544H615.367V72H612.607V63.36L606.895 72H604.111V59.544H606.871V68.232Z" fill="white"/>
<path d="M624.238 72.24C623.23 72.24 622.326 72.096 621.526 71.808C620.726 71.504 620.046 71.08 619.486 70.536C618.926 69.976 618.494 69.296 618.19 68.496C617.886 67.696 617.734 66.784 617.734 65.76C617.734 64.752 617.886 63.848 618.19 63.048C618.494 62.248 618.926 61.576 619.486 61.032C620.046 60.472 620.734 60.048 621.55 59.76C622.366 59.456 623.278 59.304 624.286 59.304C625.15 59.304 625.902 59.4 626.542 59.592C627.198 59.784 627.718 60.024 628.102 60.312V62.616C627.606 62.296 627.062 62.048 626.47 61.872C625.894 61.696 625.222 61.608 624.454 61.608C621.878 61.608 620.59 62.992 620.59 65.76C620.59 68.528 621.854 69.912 624.382 69.912C625.198 69.912 625.894 69.824 626.47 69.648C627.062 69.456 627.606 69.216 628.102 68.928V71.232C627.686 71.504 627.166 71.744 626.542 71.952C625.918 72.144 625.15 72.24 624.238 72.24Z" fill="white"/>
<path d="M637.842 69.816C637.714 70.104 637.538 70.392 637.314 70.68C637.106 70.968 636.842 71.232 636.522 71.472C636.218 71.696 635.85 71.88 635.418 72.024C634.986 72.168 634.482 72.24 633.906 72.24C633.362 72.24 632.858 72.16 632.394 72C631.93 71.856 631.522 71.632 631.17 71.328C630.834 71.024 630.562 70.648 630.354 70.2C630.162 69.736 630.066 69.208 630.066 68.616C630.066 67.256 630.57 66.24 631.578 65.568C632.586 64.88 634.01 64.536 635.85 64.536H637.746V63.768C637.746 62.952 637.538 62.392 637.122 62.088C636.706 61.768 636.018 61.608 635.058 61.608C634.242 61.608 633.474 61.728 632.754 61.968C632.05 62.192 631.426 62.456 630.882 62.76V60.432C631.378 60.16 632.034 59.904 632.85 59.664C633.666 59.424 634.554 59.304 635.514 59.304C637.114 59.304 638.346 59.64 639.21 60.312C640.09 60.968 640.53 62.024 640.53 63.48V69.984C640.53 70.128 640.53 70.296 640.53 70.488C640.546 70.664 640.554 70.848 640.554 71.04C640.57 71.232 640.586 71.416 640.602 71.592C640.618 71.752 640.634 71.888 640.65 72H638.082C638.034 71.776 637.986 71.464 637.938 71.064C637.906 70.664 637.882 70.304 637.866 69.984L637.842 69.816ZM634.674 70.08C635.266 70.08 635.754 69.96 636.138 69.72C636.538 69.464 636.858 69.176 637.098 68.856C637.338 68.52 637.506 68.192 637.602 67.872C637.698 67.552 637.746 67.328 637.746 67.2V66.36H636.018C634.914 66.36 634.106 66.536 633.594 66.888C633.082 67.224 632.826 67.704 632.826 68.328C632.826 68.872 632.978 69.304 633.282 69.624C633.602 69.928 634.066 70.08 634.674 70.08Z" fill="white"/>
<path d="M648.937 61.8V72H646.153V61.8H642.385V59.544H652.777V61.8H648.937Z" fill="white"/>
<path d="M664.932 67.704C664.932 68.424 664.796 69.056 664.524 69.6C664.268 70.144 663.908 70.592 663.444 70.944C662.98 71.296 662.428 71.56 661.788 71.736C661.148 71.912 660.444 72 659.676 72H654.876V59.544H657.66V63.576H659.748C661.38 63.576 662.652 63.912 663.564 64.584C664.476 65.256 664.932 66.296 664.932 67.704ZM657.66 65.784V69.816H659.46C660.228 69.816 660.852 69.664 661.332 69.36C661.812 69.04 662.052 68.52 662.052 67.8C662.052 67.08 661.836 66.568 661.404 66.264C660.972 65.944 660.348 65.784 659.532 65.784H657.66Z" fill="white"/>
<path d="M672.941 72.24C671.933 72.24 671.029 72.096 670.229 71.808C669.429 71.504 668.749 71.08 668.189 70.536C667.629 69.976 667.197 69.296 666.893 68.496C666.589 67.696 666.437 66.784 666.437 65.76C666.437 64.752 666.589 63.848 666.893 63.048C667.197 62.248 667.629 61.576 668.189 61.032C668.749 60.472 669.437 60.048 670.253 59.76C671.069 59.456 671.981 59.304 672.989 59.304C673.853 59.304 674.605 59.4 675.245 59.592C675.901 59.784 676.421 60.024 676.805 60.312V62.616C676.309 62.296 675.765 62.048 675.173 61.872C674.597 61.696 673.925 61.608 673.157 61.608C670.581 61.608 669.293 62.992 669.293 65.76C669.293 68.528 670.557 69.912 673.085 69.912C673.901 69.912 674.597 69.824 675.173 69.648C675.765 69.456 676.309 69.216 676.805 68.928V71.232C676.389 71.504 675.869 71.744 675.245 71.952C674.621 72.144 673.853 72.24 672.941 72.24Z" fill="white"/>
<path d="M679.225 63.624C679.225 62.952 679.353 62.36 679.609 61.848C679.865 61.336 680.217 60.912 680.665 60.576C681.129 60.224 681.681 59.968 682.321 59.808C682.977 59.632 683.697 59.544 684.481 59.544H689.113V72H686.329V67.776H684.553L681.601 72H678.481L681.913 67.176C681.049 66.92 680.385 66.504 679.921 65.928C679.457 65.352 679.225 64.584 679.225 63.624ZM686.329 65.568V61.752H684.697C683.929 61.752 683.297 61.896 682.801 62.184C682.321 62.472 682.081 62.952 682.081 63.624C682.081 64.312 682.297 64.808 682.729 65.112C683.177 65.416 683.809 65.568 684.625 65.568H686.329Z" fill="white"/>
<g clip-path="url(#clip0)">
<path d="M532.333 49.3333C532.333 48.597 531.736 48 531 48C530.263 48 529.667 48.597 529.667 49.3333V52.6667L526.333 52.6667C525.597 52.6667 525 53.2636 525 54C525 54.7364 525.597 55.3333 526.333 55.3333L529.667 55.3333V58.6667C529.667 59.403 530.263 60 531 60C531.736 60 532.333 59.403 532.333 58.6667V55.3333L535.667 55.3333C536.403 55.3333 537 54.7364 537 54C537 53.2636 536.403 52.6667 535.667 52.6667L532.333 52.6667V49.3333Z" fill="white"/>
<path fill-rule="evenodd" clip-rule="evenodd" d="M511.729 54.5802C512.857 53.0736 514.569 52.1667 516.75 52.1667C518.93 52.1667 520.643 53.0736 521.771 54.5802C522.863 56.0387 523.333 57.9528 523.333 59.9167C523.333 61.8805 522.863 63.7946 521.771 65.2531C520.643 66.7597 518.93 67.6667 516.75 67.6667C514.569 67.6667 512.857 66.7597 511.729 65.2531C510.636 63.7946 510.167 61.8805 510.167 59.9167C510.167 57.9528 510.636 56.0387 511.729 54.5802ZM513.863 56.1786C513.216 57.0425 512.833 58.3367 512.833 59.9167C512.833 61.4966 513.216 62.7909 513.863 63.6547C514.474 64.4705 515.386 65 516.75 65C518.113 65 519.026 64.4705 519.637 63.6547C520.283 62.7909 520.667 61.4966 520.667 59.9167C520.667 58.3367 520.283 57.0425 519.637 56.1786C519.026 55.3628 518.113 54.8333 516.75 54.8333C515.386 54.8333 514.474 55.3628 513.863 56.1786Z" fill="white"/>
<path d="M509.143 75.7693C509.888 74.5289 510.818 73.6991 511.998 73.1612C513.205 72.6114 514.747 72.3333 516.75 72.3333C518.753 72.3333 520.295 72.6114 521.502 73.1612C522.682 73.6991 523.612 74.5289 524.357 75.7693C524.736 76.4008 525.555 76.6055 526.186 76.2267C526.817 75.8478 527.022 75.0288 526.643 74.3973C525.638 72.7211 524.307 71.5092 522.607 70.7346C520.934 69.972 518.976 69.6667 516.75 69.6667C514.524 69.6667 512.566 69.972 510.893 70.7346C509.193 71.5092 507.862 72.7211 506.857 74.3973C506.478 75.0288 506.683 75.8478 507.314 76.2267C507.945 76.6055 508.764 76.4008 509.143 75.7693Z" fill="white"/>
</g>
<defs>
<clipPath id="clip0">
<rect width="32" height="32" fill="white" transform="translate(505 48)"/>
</clipPath>
</defs>
</svg>
