<?xml version="1.0" standalone="no"?>
<!DOCTYPE svg PUBLIC "-//W3C//DTD SVG 20010904//EN"
 "http://www.w3.org/TR/2001/REC-SVG-20010904/DTD/svg10.dtd">
<svg version="1.0" xmlns="http://www.w3.org/2000/svg"
 width="260.000000pt" height="260.000000pt" viewBox="0 0 260.000000 260.000000"
 preserveAspectRatio="xMidYMid meet">
<metadata>
Created by potrace 1.14, written by Peter Selinger 2001-2017
</metadata>
<g transform="translate(0.000000,260.000000) scale(0.100000,-0.100000)"
fill="#000000" stroke="none">
<path d="M78 2579 c-23 -12 -46 -35 -58 -59 -20 -39 -20 -57 -20 -1220 0
-1164 0 -1181 20 -1220 13 -26 34 -47 60 -60 39 -20 56 -20 1220 -20 1164 0
1181 0 1220 20 26 13 47 34 60 60 20 39 20 56 20 1220 0 1164 0 1181 -20 1220
-13 26 -34 47 -60 60 -39 20 -56 20 -1222 20 -1158 -1 -1184 -1 -1220 -21z
m2370 -511 l3 -158 -443 -2 -443 -3 -3 -142 -3 -143 -159 0 -159 0 -3 143 -3
142 -386 5 -385 5 -75 37 c-105 52 -202 161 -224 251 l-7 27 1143 -2 1144 -3
3 -157z m-373 -493 c207 -54 344 -212 369 -426 21 -177 -99 -389 -266 -467
-94 -45 -149 -52 -378 -52 l-210 0 0 160 0 160 163 0 c136 0 168 3 203 19 111
50 119 214 14 276 -34 19 -54 20 -660 25 l-625 5 -63 29 c-97 45 -193 159
-217 259 l-7 27 809 0 c694 0 817 -2 868 -15z m-515 -770 l0 -435 -160 0 -160
0 0 435 0 435 160 0 160 0 0 -435z m-350 -16 l0 -161 -162 4 c-154 3 -166 4
-219 31 -31 15 -76 48 -99 73 -38 41 -87 132 -105 192 l-6 22 295 0 296 0 0
-161z"/>
</g>
</svg>
