<svg width="182" height="28" viewBox="0 0 182 28" fill="none" xmlns="http://www.w3.org/2000/svg">
<path d="M6.86188 5.64054C8.00713 5.64054 9.09964 5.84398 10.1394 6.25084C11.1641 6.65771 11.9552 7.18512 12.5128 7.83309L12.1059 8.37558C11.5785 7.77282 10.8476 7.27554 9.91337 6.88374C8.96401 6.50701 7.95439 6.31865 6.88448 6.31865C5.30223 6.31865 4.11177 6.62757 3.31311 7.2454C2.49938 7.8783 2.09252 8.6845 2.09252 9.66399C2.09252 10.4174 2.30348 11.0202 2.72542 11.4723C3.14735 11.9394 3.66724 12.286 4.28507 12.512C4.9029 12.7531 5.74677 13.0018 6.81667 13.258C7.96192 13.5443 8.88113 13.823 9.57431 14.0943C10.2675 14.3655 10.8552 14.7799 11.3374 15.3375C11.8196 15.895 12.0607 16.641 12.0607 17.5752C12.0607 18.3136 11.8648 18.9917 11.473 19.6096C11.0812 20.2274 10.486 20.7172 9.68733 21.0788C8.8736 21.4555 7.86397 21.6439 6.65845 21.6439C5.79951 21.6439 4.95564 21.5158 4.12684 21.2596C3.28297 21.0035 2.56719 20.6493 1.9795 20.1973L2.31855 19.587C2.93638 20.039 3.62956 20.3781 4.39808 20.6041C5.15154 20.8452 5.89746 20.9658 6.63584 20.9658C8.17289 20.9658 9.34074 20.6418 10.1394 19.9938C10.923 19.3609 11.3148 18.5547 11.3148 17.5752C11.3148 16.8067 11.1038 16.1889 10.6819 15.7218C10.2449 15.2697 9.71747 14.9231 9.09964 14.682C8.46673 14.4409 7.62287 14.1922 6.56803 13.9361C5.42278 13.6498 4.50357 13.371 3.81039 13.0997C3.11721 12.8436 2.53705 12.4367 2.06991 11.8791C1.5877 11.3367 1.3466 10.6058 1.3466 9.68659C1.3466 8.9482 1.55003 8.2701 1.9569 7.65226C2.34869 7.03443 2.95899 6.54469 3.78779 6.18303C4.61659 5.82137 5.64128 5.64054 6.86188 5.64054Z" fill="#A9A9A9"/>
<path d="M23.7246 7.1195L17.9164 7.01812L17.9286 6.31751L30.2909 6.5333L30.2787 7.2339L24.4705 7.13252L24.2065 22.252L23.4607 22.239L23.7246 7.1195Z" fill="#A9A9A9"/>
<path d="M43.6403 5.64054C45.1774 5.64054 46.5713 5.98713 47.822 6.68031C49.0577 7.37349 50.0296 8.33037 50.7379 9.55097C51.4461 10.7716 51.8002 12.1353 51.8002 13.6422C51.8002 15.1491 51.4461 16.5129 50.7379 17.7335C50.0296 18.9541 49.0577 19.911 47.822 20.6041C46.5713 21.2973 45.1774 21.6439 43.6403 21.6439C42.1033 21.6439 40.7094 21.2973 39.4587 20.6041C38.2079 19.911 37.2284 18.9541 36.5202 17.7335C35.8119 16.5129 35.4578 15.1491 35.4578 13.6422C35.4578 12.1353 35.8119 10.7716 36.5202 9.55097C37.2284 8.33037 38.2079 7.37349 39.4587 6.68031C40.7094 5.98713 42.1033 5.64054 43.6403 5.64054ZM43.6403 6.34125C42.254 6.34125 40.9957 6.65771 39.8655 7.29061C38.7353 7.92351 37.8463 8.79751 37.1983 9.91262C36.5503 11.0277 36.2263 12.2709 36.2263 13.6422C36.2263 15.0135 36.5503 16.2567 37.1983 17.3718C37.8463 18.4869 38.7353 19.3609 39.8655 19.9938C40.9957 20.6267 42.254 20.9432 43.6403 20.9432C45.0267 20.9432 46.285 20.6267 47.4151 19.9938C48.5302 19.3609 49.4118 18.4869 50.0598 17.3718C50.7077 16.2567 51.0317 15.0135 51.0317 13.6422C51.0317 12.2709 50.7077 11.0277 50.0598 9.91262C49.4118 8.79751 48.5302 7.92351 47.4151 7.29061C46.285 6.65771 45.0267 6.34125 43.6403 6.34125Z" fill="#A9A9A9"/>
<path d="M70.8516 22.2471L66.9412 16.7996C66.4288 16.89 65.8562 16.9352 65.2233 16.9352H60.4991V22.2471H59.7306V6.42454H65.2233C67.1973 6.42454 68.7344 6.89168 69.8344 7.82597C70.9495 8.74518 71.5071 10.0261 71.5071 11.6686C71.5071 12.9344 71.1756 13.9968 70.5125 14.8557C69.8646 15.6996 68.9303 16.2873 67.7097 16.6188L71.7557 22.2471H70.8516ZM65.2685 16.2345C67.0316 16.2345 68.3878 15.8427 69.3371 15.0591C70.2865 14.2605 70.7612 13.1303 70.7612 11.6686C70.7612 10.2219 70.2865 9.10684 69.3371 8.32325C68.3878 7.52459 67.0316 7.12526 65.2685 7.12526H60.4991V16.2345H65.2685Z" fill="#A9A9A9"/>
<path d="M94.8461 22.2471L94.8235 7.98419L87.8842 20.0545H87.4774L80.5154 8.0294V22.2471H79.7695V6.42454H80.4024L87.6808 19.0826L94.9365 6.42454H95.5694L95.5921 22.2471H94.8461Z" fill="#A9A9A9"/>
<path d="M111.708 5.64054C113.245 5.64054 114.639 5.98713 115.89 6.68031C117.125 7.37349 118.097 8.33037 118.805 9.55097C119.514 10.7716 119.868 12.1353 119.868 13.6422C119.868 15.1491 119.514 16.5129 118.805 17.7335C118.097 18.9541 117.125 19.911 115.89 20.6041C114.639 21.2973 113.245 21.6439 111.708 21.6439C110.171 21.6439 108.777 21.2973 107.526 20.6041C106.276 19.911 105.296 18.9541 104.588 17.7335C103.88 16.5129 103.525 15.1491 103.525 13.6422C103.525 12.1353 103.88 10.7716 104.588 9.55097C105.296 8.33037 106.276 7.37349 107.526 6.68031C108.777 5.98713 110.171 5.64054 111.708 5.64054ZM111.708 6.34125C110.322 6.34125 109.063 6.65771 107.933 7.29061C106.803 7.92351 105.914 8.79751 105.266 9.91262C104.618 11.0277 104.294 12.2709 104.294 13.6422C104.294 15.0135 104.618 16.2567 105.266 17.3718C105.914 18.4869 106.803 19.3609 107.933 19.9938C109.063 20.6267 110.322 20.9432 111.708 20.9432C113.094 20.9432 114.353 20.6267 115.483 19.9938C116.598 19.3609 117.479 18.4869 118.127 17.3718C118.775 16.2567 119.099 15.0135 119.099 13.6422C119.099 12.2709 118.775 11.0277 118.127 9.91262C117.479 8.79751 116.598 7.92351 115.483 7.29061C114.353 6.65771 113.094 6.34125 111.708 6.34125Z" fill="#A9A9A9"/>
<path d="M125.91 6.66064L125.885 5.96036L138.445 5.52176L138.464 6.06391L127.7 21.028L138.86 20.6383L138.884 21.3386L126.686 21.7646L126.667 21.2224L137.43 6.25833L125.91 6.66064Z" fill="#A9A9A9"/>
<path d="M153.499 5.64054C155.036 5.64054 156.43 5.98713 157.681 6.68031C158.916 7.37349 159.888 8.33037 160.597 9.55097C161.305 10.7716 161.659 12.1353 161.659 13.6422C161.659 15.1491 161.305 16.5129 160.597 17.7335C159.888 18.9541 158.916 19.911 157.681 20.6041C156.43 21.2973 155.036 21.6439 153.499 21.6439C151.962 21.6439 150.568 21.2973 149.317 20.6041C148.067 19.911 147.087 18.9541 146.379 17.7335C145.671 16.5129 145.316 15.1491 145.316 13.6422C145.316 12.1353 145.671 10.7716 146.379 9.55097C147.087 8.33037 148.067 7.37349 149.317 6.68031C150.568 5.98713 151.962 5.64054 153.499 5.64054ZM153.499 6.34125C152.113 6.34125 150.854 6.65771 149.724 7.29061C148.594 7.92351 147.705 8.79751 147.057 9.91262C146.409 11.0277 146.085 12.2709 146.085 13.6422C146.085 15.0135 146.409 16.2567 147.057 17.3718C147.705 18.4869 148.594 19.3609 149.724 19.9938C150.854 20.6267 152.113 20.9432 153.499 20.9432C154.885 20.9432 156.144 20.6267 157.274 19.9938C158.389 19.3609 159.27 18.4869 159.918 17.3718C160.566 16.2567 160.89 15.0135 160.89 13.6422C160.89 12.2709 160.566 11.0277 159.918 9.91262C159.27 8.79751 158.389 7.92351 157.274 7.29061C156.144 6.65771 154.885 6.34125 153.499 6.34125Z" fill="#A9A9A9"/>
<path d="M166.821 21.5535L173.919 5.73096H174.664L181.762 21.5535H180.903L174.258 6.72552L167.635 21.5535H166.821Z" fill="#A9A9A9"/>
</svg>
