<svg width="15" height="15" viewBox="0 0 15 15" fill="none" xmlns="http://www.w3.org/2000/svg">
<path d="M6.07812 7.16797C6.86523 6.76172 7.29688 6.17773 7.29688 5.28906C7.29688 3.48633 5.95117 3.05469 4.42773 3.05469H0.1875V12.043H4.5293C6.17969 12.043 7.70312 11.2559 7.70312 9.42773C7.70312 8.31055 7.16992 7.47266 6.07812 7.16797ZM2.14258 4.57812H4.02148C4.73242 4.57812 5.36719 4.78125 5.36719 5.61914C5.36719 6.38086 4.85938 6.68555 4.14844 6.68555H2.14258V4.57812ZM4.27539 10.5195H2.14258V8.03125H4.30078C5.18945 8.03125 5.72266 8.41211 5.72266 9.32617C5.72266 10.2402 5.0625 10.5195 4.27539 10.5195ZM13.3652 4.40039V3.51172H9.73438V4.40039H13.3652ZM14.8125 8.89453C14.8125 6.96484 13.6699 5.33984 11.6387 5.33984C9.63281 5.33984 8.28711 6.83789 8.28711 8.79297C8.28711 10.8242 9.58203 12.2207 11.6387 12.2207C13.1875 12.2207 14.2031 11.5098 14.6855 10.0371H13.1113C12.9336 10.5957 12.2227 10.875 11.6895 10.875C10.6484 10.875 10.0898 10.2656 10.0898 9.22461H14.7871C14.7871 9.12305 14.8125 8.99609 14.8125 8.89453ZM10.0898 8.08203C10.1406 7.24414 10.7246 6.71094 11.5625 6.71094C12.4766 6.71094 12.9336 7.21875 13.0098 8.08203H10.0898Z" fill="#4F545A"/>
</svg>
