<svg width="15" height="15" viewBox="0 0 15 15" fill="none" xmlns="http://www.w3.org/2000/svg">
<path d="M4.41964 7.72745C4.41964 7.19303 4.80248 6.83772 5.19376 6.83772C5.59261 6.83772 5.97658 7.1996 5.96803 7.71863L5.96796 7.72745C5.96796 8.26196 5.58512 8.61728 5.19376 8.61728C4.81207 8.61728 4.41964 8.25844 4.41964 7.72745Z" fill="#4F545A"/>
<path d="M9.10702 7.72745C9.10702 7.44476 9.19309 7.24778 9.30139 7.12802C9.40522 7.0132 9.5609 6.93319 9.78585 6.93319C10.1771 6.93319 10.56 7.2885 10.56 7.82292C10.56 8.35745 10.1771 8.71275 9.78585 8.71275C9.62655 8.71275 9.46986 8.6352 9.336 8.45839C9.19844 8.27669 9.10702 8.01227 9.10702 7.72745Z" fill="#4F545A"/>
<path fill-rule="evenodd" clip-rule="evenodd" d="M3.7993 12.1418C4.07687 12.2501 4.38312 12.3589 4.71778 12.4592C4.12821 13.0714 3.21429 13.9286 3.21429 13.9286C0.37603 13.8387 0 11.5143 0 11.5143C0 7.37899 1.8493 2.41987 1.8493 2.41987C3.6986 1.03287 5.458 1.07141 5.458 1.07141L5.62093 2.16702C4.76875 2.39371 3.89524 2.76844 2.95781 3.27968L3.47081 4.22032C5.01696 3.37709 6.27612 2.98366 7.50254 2.98305C8.72864 2.98245 9.98592 3.37445 11.5283 4.21978L12.0432 3.28022C11.0601 2.7414 10.1471 2.35476 9.25482 2.13269L9.54191 1.0715C9.54191 1.0715 11.3013 1.03287 13.1506 2.41996C13.1506 2.41996 15 7.37899 15 11.5143C15 11.5143 14.6239 13.8387 11.7857 13.9286C11.7857 13.9286 10.9323 13.0869 10.3682 12.4804C10.6643 12.3894 10.9637 12.2809 11.2673 12.1537C11.752 11.9729 12.2854 11.7116 12.8417 11.3452L12.2524 10.4504C11.7598 10.7748 11.2953 11.0005 10.8838 11.1532L10.877 11.1558L10.8717 11.1579L10.8627 11.1616C10.2557 11.4166 9.67857 11.5842 9.11812 11.6796L9.10935 11.6812C7.95422 11.8978 6.89265 11.8385 5.98175 11.6686C5.2897 11.5348 4.69286 11.3403 4.18929 11.1438C3.68543 10.9466 3.25432 10.7381 2.83716 10.4461L2.22277 11.3239C2.73274 11.6808 3.24743 11.9258 3.79879 12.1416L3.7993 12.1418ZM5.19376 5.76629C4.12105 5.76629 3.34821 6.69517 3.34821 7.72745C3.34821 8.76335 4.13709 9.68871 5.19376 9.68871C6.26503 9.68871 7.03719 8.76246 7.03938 7.73185C7.05433 6.68601 6.25739 5.76629 5.19376 5.76629ZM9.78585 5.86176C9.27871 5.86176 8.82712 6.05506 8.5067 6.40939C8.19075 6.75879 8.03559 7.2268 8.03559 7.72745C8.03559 8.22608 8.19185 8.72216 8.48177 9.10511C8.77538 9.49294 9.22597 9.78417 9.78585 9.78417C10.8586 9.78417 11.6314 8.85527 11.6314 7.82292C11.6314 6.79064 10.8586 5.86176 9.78585 5.86176Z" fill="#4F545A"/>
</svg>
