<svg width="16" height="15" viewBox="0 0 16 15" fill="none" xmlns="http://www.w3.org/2000/svg">
<g clip-path="url(#clip0)">
<path d="M4.544 0.842041C3.50312 1.38294 2.60347 2.1602 1.91716 3.11151C1.23086 4.06281 0.77701 5.1617 0.592 6.32004H1.027C3.833 6.25504 6.032 6.01204 7.827 5.46204C7.047 4.07904 6.095 2.72204 4.954 1.34204L4.952 1.34104L4.544 0.842041ZM0.502 7.32004L0.5 7.50004C0.5 9.51704 1.296 11.348 2.591 12.696L2.752 12.372C2.76095 12.3541 2.77096 12.3368 2.782 12.32C4.44 9.79804 6.317 8.29804 8.414 7.62504C8.556 7.57904 8.7 7.53704 8.844 7.49904C8.67602 7.11395 8.49695 6.73379 8.307 6.35904C6.342 6.99204 3.98 7.25204 1.044 7.31904H0.503L0.502 7.32004Z" fill="white"/>
<path d="M3.36011 13.393C4.68142 14.4364 6.31652 15.0027 8.00011 15C8.89311 15 9.75011 14.844 10.5431 14.558V13.838C10.2991 11.903 9.87011 10.128 9.22511 8.43401C9.05511 8.47601 8.88611 8.52401 8.71911 8.57701C6.89711 9.16201 5.19411 10.48 3.63411 12.845L3.36111 13.393H3.36011ZM11.5431 14.112C12.5098 13.5933 13.3511 12.8692 14.0079 11.9905C14.6648 11.1118 15.1212 10.1 15.3451 9.02601L14.7801 8.77101C13.1541 8.29301 11.6391 8.09701 10.2271 8.25601C10.8651 9.97601 11.2941 11.782 11.5401 13.744C11.5421 13.764 11.5431 13.784 11.5431 13.806V14.112ZM15.4841 7.99201C15.6162 6.02768 14.9676 4.09062 13.6791 2.60201L13.3821 2.93101C12.2121 4.35401 10.8761 5.34101 9.25211 6.01301C9.46411 6.43701 9.66211 6.86401 9.84511 7.29701C11.5171 7.05701 13.2751 7.28301 15.0961 7.82201C15.1183 7.82849 15.14 7.83651 15.1611 7.84601L15.4841 7.99201ZM12.9761 1.88801C11.6054 0.669269 9.83428 -0.0027266 8.00011 8.31526e-06C7.12211 8.31526e-06 6.28011 0.150008 5.49711 0.428008L5.72511 0.706008C6.94511 2.17901 7.95711 3.63501 8.78311 5.12401C10.3261 4.50101 11.5491 3.59001 12.6171 2.28701C12.622 2.28089 12.627 2.27488 12.6321 2.26901L12.9761 1.88901V1.88801Z" fill="white"/>
</g>
<defs>
<clipPath id="clip0">
<rect width="15" height="15" fill="white" transform="translate(0.5)"/>
</clipPath>
</defs>
</svg>
