<svg width="15" height="15" viewBox="0 0 15 15" fill="none" xmlns="http://www.w3.org/2000/svg">
<path d="M13.4651 4.29075C13.551 4.00069 13.4651 3.7872 13.0521 3.7872H11.6853C11.3372 3.7872 11.1771 3.97052 11.0912 4.17472C11.0912 4.17472 10.3951 5.87101 9.4112 6.97093C9.09329 7.28884 8.9471 7.39094 8.77306 7.39094C8.68721 7.39094 8.55494 7.28884 8.55494 6.99877V4.29075C8.55494 3.94267 8.45748 3.7872 8.16973 3.7872H6.02095C5.80282 3.7872 5.67287 3.94964 5.67287 4.10047C5.67287 4.42998 6.16482 4.50656 6.21587 5.43476V7.44895C6.21587 7.88985 6.13697 7.97106 5.96294 7.97106C5.49884 7.97106 4.37107 6.26782 3.70277 4.3186C3.56818 3.94035 3.43591 3.7872 3.08552 3.7872H1.71874C1.3289 3.7872 1.25 3.97052 1.25 4.17472C1.25 4.53672 1.7141 6.33511 3.41039 8.7113C4.54047 10.3333 6.13233 11.2128 7.58033 11.2128C8.45051 11.2128 8.55726 11.0179 8.55726 10.6814C8.55726 9.13132 8.47836 8.98512 8.91461 8.98512C9.1165 8.98512 9.46457 9.08723 10.2767 9.86923C11.2049 10.7974 11.3581 11.2128 11.8779 11.2128H13.2447C13.6345 11.2128 13.8318 11.0179 13.7181 10.6327C13.4582 9.82282 11.7015 8.1567 11.6226 8.04532C11.4208 7.78542 11.4788 7.6694 11.6226 7.43735C11.625 7.43503 13.2934 5.08668 13.4651 4.29075Z" fill="#4F545A"/>
</svg>
